<?xml version="1.0" encoding="utf-8"?>
<!-- Generator: Adobe Illustrator 17.0.0, SVG Export Plug-In . SVG Version: 6.00 Build 0)  -->
<!DOCTYPE svg PUBLIC "-//W3C//DTD SVG 1.1//EN" "http://www.w3.org/Graphics/SVG/1.1/DTD/svg11.dtd" [
	<!ENTITY ns_extend "http://ns.adobe.com/Extensibility/1.0/">
	<!ENTITY ns_ai "http://ns.adobe.com/AdobeIllustrator/10.0/">
	<!ENTITY ns_graphs "http://ns.adobe.com/Graphs/1.0/">
	<!ENTITY ns_vars "http://ns.adobe.com/Variables/1.0/">
	<!ENTITY ns_imrep "http://ns.adobe.com/ImageReplacement/1.0/">
	<!ENTITY ns_sfw "http://ns.adobe.com/SaveForWeb/1.0/">
	<!ENTITY ns_custom "http://ns.adobe.com/GenericCustomNamespace/1.0/">
	<!ENTITY ns_adobe_xpath "http://ns.adobe.com/XPath/1.0/">
]>
<svg version="1.1" id="Objects" xmlns:x="&ns_extend;" xmlns:i="&ns_ai;" xmlns:graph="&ns_graphs;"
	 xmlns="http://www.w3.org/2000/svg" xmlns:xlink="http://www.w3.org/1999/xlink" x="0px" y="0px" width="358.339px"
	 height="413.774px" viewBox="0 0 358.339 413.774" enable-background="new 0 0 358.339 413.774" xml:space="preserve">
<metadata>
	<sfw  xmlns="&ns_sfw;">
		<slices></slices>
		<sliceSourceBounds  width="358.339" height="413.774" x="212.471" y="-598.887" bottomLeftOrigin="true"></sliceSourceBounds>
	</sfw>
</metadata>
<g>
	<g>
		<defs>
			<polygon id="SVGID_1_" points="2.5,104.887 179.169,2.887 355.839,104.887 355.839,308.888 179.169,410.887 2.5,308.888 			"/>
		</defs>
		<clipPath id="SVGID_2_">
			<use xlink:href="#SVGID_1_"  overflow="visible"/>
		</clipPath>
		<g transform="matrix(1 0 0 1 6.498897e-008 9.025575e-008)" clip-path="url(#SVGID_2_)">
			
				<image overflow="visible" width="354" height="408" xlink:href="../../../Untitled-1.png"  transform="matrix(0.9999 0 0 0.9999 2.1699 3.9125)">
			</image>
		</g>
		<polygon clip-path="url(#SVGID_2_)" fill="none" points="2.5,104.887 179.169,2.887 355.839,104.887 355.839,308.888 
			179.169,410.887 2.5,308.888 		"/>
	</g>
	<g>
		<path fill="#FFFFFF" d="M179.169,413.774L0,310.331V103.444L179.169,0l179.17,103.444v206.887L179.169,413.774z M5,307.444
			L179.169,408l174.17-100.557V106.331L179.169,5.773L5,106.331V307.444z"/>
	</g>
</g>
</svg>
