<?xml version="1.0" encoding="utf-8"?>
<!-- Generator: Adobe Illustrator 17.0.0, SVG Export Plug-In . SVG Version: 6.00 Build 0)  -->
<!DOCTYPE svg PUBLIC "-//W3C//DTD SVG 1.1//EN" "http://www.w3.org/Graphics/SVG/1.1/DTD/svg11.dtd">
<svg version="1.1" id="Capa_1" xmlns="http://www.w3.org/2000/svg" xmlns:xlink="http://www.w3.org/1999/xlink" x="0px" y="0px"
	 width="82px" height="82px" viewBox="69 0 82 82" enable-background="new 69 0 82 82" xml:space="preserve">
<g>
	<g id="calendar_1_">
		<path fill="#949494" d="M144.168,7.688h-11.106V2.563c0-1.417-1.145-2.563-2.563-2.563s-2.563,1.145-2.563,2.563v5.125h-15.375
			V2.563C112.563,1.145,111.414,0,110,0s-2.563,1.145-2.563,2.563v5.125H92.063V2.563C92.063,1.145,90.914,0,89.5,0
			s-2.563,1.145-2.563,2.563v5.125H75.834C72.06,7.688,69,10.745,69,14.519v60.647C69,78.94,72.06,82,75.834,82h68.334
			c3.775,0,6.832-3.06,6.832-6.834V14.519C151,10.745,147.943,7.688,144.168,7.688z M145.875,75.166
			c0,0.943-0.766,1.709-1.707,1.709H75.834c-0.943,0-1.709-0.766-1.709-1.709V14.519c0-0.94,0.766-1.707,1.709-1.707h11.103v5.125
			c0,1.417,1.148,2.563,2.563,2.563s2.563-1.145,2.563-2.563v-5.125h15.375v5.125c0,1.417,1.148,2.563,2.563,2.563
			s2.563-1.145,2.563-2.563v-5.125h15.375v5.125c0,1.417,1.145,2.563,2.563,2.563s2.563-1.145,2.563-2.563v-5.125h11.106
			c0.94,0,1.707,0.766,1.707,1.707V75.166z"/>
		<rect x="86.938" y="30.75" fill="#949494" width="10.25" height="7.688"/>
		<rect x="86.938" y="43.563" fill="#949494" width="10.25" height="7.688"/>
		<rect x="86.938" y="56.375" fill="#949494" width="10.25" height="7.688"/>
		<rect x="104.875" y="56.375" fill="#949494" width="10.25" height="7.688"/>
		<rect x="104.875" y="43.563" fill="#949494" width="10.25" height="7.688"/>
		<rect x="104.875" y="30.75" fill="#949494" width="10.25" height="7.688"/>
		<rect x="122.813" y="56.375" fill="#949494" width="10.25" height="7.688"/>
		<rect x="122.813" y="43.563" fill="#949494" width="10.25" height="7.688"/>
		<rect x="122.813" y="30.75" fill="#949494" width="10.25" height="7.688"/>
	</g>
</g>
</svg>
