<?xml version="1.0" encoding="utf-8"?>
<!-- Generator: Adobe Illustrator 17.0.0, SVG Export Plug-In . SVG Version: 6.00 Build 0)  -->
<!DOCTYPE svg PUBLIC "-//W3C//DTD SVG 1.1//EN" "http://www.w3.org/Graphics/SVG/1.1/DTD/svg11.dtd">
<svg version="1.1" id="Layer_1" xmlns="http://www.w3.org/2000/svg" xmlns:xlink="http://www.w3.org/1999/xlink" x="0px" y="0px"
	 width="26.007px" height="26px" viewBox="242.996 242.936 26.007 26" enable-background="new 242.996 242.936 26.007 26"
	 xml:space="preserve">
<path d="M261.939,257.19l-2.833,2.743c-0.816-0.46-2.379-1.457-4.079-3.157c-1.7-1.7-2.709-3.275-3.176-4.098l2.742-2.777
	l-6.923-6.965l-3.411,3.388c-1.295,1.295-1.631,3.266-0.835,4.904c1.214,2.5,3.454,6.272,7.231,10.049
	c3.777,3.777,7.549,6.017,10.049,7.231c0.592,0.288,1.228,0.427,1.859,0.427c1.115,0,2.218-0.436,3.044-1.263l3.395-3.407
	L261.939,257.19z M264.171,266.238c-0.684,0.683-1.721,0.861-2.581,0.444c-2.359-1.146-5.923-3.263-9.5-6.84
	c-3.578-3.578-5.694-7.141-6.84-9.5c-0.418-0.86-0.239-1.898,0.442-2.579l1.969-1.956l4.075,4.099l-2.336,2.366l0.282,0.633
	c0.046,0.103,1.154,2.551,3.91,5.307c2.758,2.758,5.186,3.843,5.288,3.888l0.624,0.275l2.411-2.335l4.22,4.227L264.171,266.238z
	 M265.936,253.355h-7.359v-7.359h2.03v3.894l6.953-6.953l1.436,1.436l-6.953,6.953h3.893V253.355z"/>
</svg>
