<?xml version="1.0" encoding="utf-8"?>
<!-- Generator: Adobe Illustrator 17.0.0, SVG Export Plug-In . SVG Version: 6.00 Build 0)  -->
<!DOCTYPE svg PUBLIC "-//W3C//DTD SVG 1.1//EN" "http://www.w3.org/Graphics/SVG/1.1/DTD/svg11.dtd" [
	<!ENTITY ns_extend "http://ns.adobe.com/Extensibility/1.0/">
	<!ENTITY ns_ai "http://ns.adobe.com/AdobeIllustrator/10.0/">
	<!ENTITY ns_graphs "http://ns.adobe.com/Graphs/1.0/">
	<!ENTITY ns_vars "http://ns.adobe.com/Variables/1.0/">
	<!ENTITY ns_imrep "http://ns.adobe.com/ImageReplacement/1.0/">
	<!ENTITY ns_sfw "http://ns.adobe.com/SaveForWeb/1.0/">
	<!ENTITY ns_custom "http://ns.adobe.com/GenericCustomNamespace/1.0/">
	<!ENTITY ns_adobe_xpath "http://ns.adobe.com/XPath/1.0/">
]>
<svg version="1.1" id="Layer_1" xmlns:x="&ns_extend;" xmlns:i="&ns_ai;" xmlns:graph="&ns_graphs;"
	 xmlns="http://www.w3.org/2000/svg" xmlns:xlink="http://www.w3.org/1999/xlink" x="0px" y="0px" width="110px" height="100px"
	 viewBox="0 0 110 100" enable-background="new 0 0 110 100" xml:space="preserve">
<metadata>
	<sfw  xmlns="&ns_sfw;">
		<slices></slices>
		<sliceSourceBounds  width="110" height="100" x="0" y="-101" bottomLeftOrigin="true"></sliceSourceBounds>
	</sfw>
</metadata>
<g>
	<g opacity="0.5">
		<path fill="#FFCC00" d="M60,100l-50-50L60,0l50,50L60,100z M17.751,50L60,92.249L102.25,50L60,7.751L17.751,50z"/>
	</g>
	<path d="M83.647,55.568c-1.489-2.212-3.968-3.532-6.63-3.532H44.194v-8.306h6.722c13.484,0,24.454-10.97,24.454-24.454v-8.415
		c0-0.935-0.758-1.693-1.693-1.693h-8.415c-10.329,0-19.183,6.437-22.761,15.511C38.922,15.605,30.068,9.168,19.739,9.168h-8.415
		c-0.935,0-1.693,0.758-1.693,1.693v8.415c0,13.484,10.97,24.454,24.454,24.454h6.722v8.306H7.983c-2.662,0-5.141,1.32-6.63,3.532
		c-1.472,2.186-1.762,4.941-0.776,7.371c3.433,8.462,11.376,14.339,20.41,15.192c1.997,3.65,4.892,6.739,8.422,8.974
		c3.436,2.175,7.346,3.449,11.398,3.727h3.387c3.006-0.206,5.933-0.964,8.648-2.228c0.007,0.01,2.619-1.42,2.675-1.455
		c0.025-0.015,0.05-0.029,0.075-0.044c3.485-2.206,6.348-5.248,8.342-8.838c3.896-0.394,7.581-1.724,10.785-3.793
		c4.286-2.692,7.738-6.686,9.705-11.535C85.409,60.51,85.119,57.754,83.647,55.568z M44.193,33.622
		c0-11.617,9.451-21.067,21.067-21.067h6.722v6.722c0,11.616-9.451,21.067-21.067,21.067h-4.327l18.458-18.458
		c0.661-0.661,0.661-1.734,0-2.395c-0.661-0.661-1.734-0.661-2.395,0L44.193,37.949V33.622z M19.954,21.886l18.458,18.458h-4.327
		c-11.616,0-21.067-9.451-21.067-21.067v-6.722h6.722c11.617,0,21.067,9.451,21.067,21.067v4.327L22.349,19.491
		c-0.661-0.661-1.733-0.661-2.395,0C19.292,20.152,19.292,21.224,19.954,21.886z M81.285,61.666
		c-2.206,5.437-6.619,9.695-11.924,11.784c0.008,0.014,0.053-0.039,0.06-0.024c-1.518,0.624-3.115,1.075-4.763,1.33
		c-0.174,0.021-0.349,0.042-0.523,0.061c-0.006,0.004-0.011,0.008-0.017,0.013c-0.496,0.064-0.994,0.121-1.498,0.148
		c-0.61,0.033-1.154,0.391-1.426,0.938c-1.592,3.206-3.905,5.866-6.687,7.842c-0.249,0.173-0.504,0.337-0.76,0.499
		c-0.169,0.109-0.336,0.223-0.508,0.327c-3.181,1.88-6.862,2.922-10.738,2.922c-8.081,0-15.335-4.5-18.931-11.745
		c-0.271-0.547-0.816-0.905-1.426-0.938C14.014,74.384,6.78,69.22,3.715,61.666c-0.57-1.404-0.407-2.938,0.447-4.206
		c0.872-1.295,2.265-2.037,3.821-2.037h69.033c1.556,0,2.949,0.743,3.821,2.037C81.692,58.729,81.855,60.262,81.285,61.666z"/>
</g>
</svg>
