<?xml version="1.0" encoding="utf-8"?>
<!-- Generator: Adobe Illustrator 17.0.0, SVG Export Plug-In . SVG Version: 6.00 Build 0)  -->
<!DOCTYPE svg PUBLIC "-//W3C//DTD SVG 1.1//EN" "http://www.w3.org/Graphics/SVG/1.1/DTD/svg11.dtd" [
	<!ENTITY ns_extend "http://ns.adobe.com/Extensibility/1.0/">
	<!ENTITY ns_ai "http://ns.adobe.com/AdobeIllustrator/10.0/">
	<!ENTITY ns_graphs "http://ns.adobe.com/Graphs/1.0/">
	<!ENTITY ns_vars "http://ns.adobe.com/Variables/1.0/">
	<!ENTITY ns_imrep "http://ns.adobe.com/ImageReplacement/1.0/">
	<!ENTITY ns_sfw "http://ns.adobe.com/SaveForWeb/1.0/">
	<!ENTITY ns_custom "http://ns.adobe.com/GenericCustomNamespace/1.0/">
	<!ENTITY ns_adobe_xpath "http://ns.adobe.com/XPath/1.0/">
]>
<svg version="1.1" id="Layer_1" xmlns:x="&ns_extend;" xmlns:i="&ns_ai;" xmlns:graph="&ns_graphs;"
	 xmlns="http://www.w3.org/2000/svg" xmlns:xlink="http://www.w3.org/1999/xlink" x="0px" y="0px" width="110px" height="100px"
	 viewBox="0 0 110 100" enable-background="new 0 0 110 100" xml:space="preserve">
<metadata>
	<sfw  xmlns="&ns_sfw;">
		<slices></slices>
		<sliceSourceBounds  width="110" height="100" x="0" y="-101.969" bottomLeftOrigin="true"></sliceSourceBounds>
	</sfw>
</metadata>
<g opacity="0.5">
	<path fill="#FFCC00" d="M60,100l-50-50L60,0l50,50L60,100z M17.751,50L60,92.249L102.25,50L60,7.751L17.751,50z"/>
</g>
<g>
	<path d="M12.248,69.252c-0.856,0-1.682,0.199-2.425,0.573c-4.505-5.848-6.976-13.082-6.976-20.492
		c0-18.522,15.068-33.59,33.59-33.59c2.36,0,4.716,0.246,7.004,0.731c0.769,0.163,1.524-0.328,1.688-1.097
		c0.163-0.769-0.328-1.525-1.097-1.688c-2.481-0.526-5.036-0.793-7.594-0.793c-9.733,0-18.883,3.79-25.765,10.672
		C3.79,30.451,0,39.601,0,49.334c0,8.11,2.728,16.026,7.7,22.4c-0.559,0.865-0.86,1.873-0.86,2.927c0,1.445,0.563,2.803,1.584,3.824
		c1.022,1.021,2.38,1.584,3.824,1.584s2.803-0.563,3.824-1.584c1.022-1.022,1.584-2.38,1.584-3.824c0-1.445-0.563-2.803-1.584-3.824
		C15.051,69.815,13.693,69.252,12.248,69.252z M14.059,76.473c-0.999,0.999-2.624,0.999-3.623,0c-0.484-0.484-0.75-1.127-0.75-1.812
		c0-0.684,0.266-1.328,0.75-1.812c0.499-0.5,1.155-0.749,1.812-0.749c0.656,0,1.312,0.25,1.812,0.749
		c0.484,0.484,0.75,1.127,0.75,1.812C14.81,75.345,14.543,75.989,14.059,76.473z"/>
	<path d="M23.931,80.519l-0.537,1.318l0.533-1.32c-0.729-0.294-1.558,0.057-1.853,0.786c-0.295,0.729,0.057,1.558,0.786,1.853
		l0.044,0.017c0.168,0.064,0.341,0.095,0.511,0.095c0.573,0,1.115-0.347,1.332-0.913C25.028,81.621,24.665,80.8,23.931,80.519z"/>
	<path d="M48.993,18.169l0.016,0.007c0.175,0.071,0.355,0.104,0.533,0.104c0.563,0,1.096-0.336,1.32-0.89
		c0.294-0.729-0.058-1.558-0.787-1.853l-0.025-0.01c-0.73-0.292-1.558,0.063-1.85,0.793C47.908,17.049,48.263,17.877,48.993,18.169z
		"/>
	<path d="M72.87,49.185c-0.033-8.058-2.756-15.916-7.696-22.251c0.559-0.865,0.86-1.873,0.86-2.927c0-1.445-0.563-2.803-1.584-3.824
		c-1.021-1.022-2.38-1.584-3.824-1.584c-1.445,0-2.803,0.563-3.824,1.584c-1.021,1.021-1.584,2.38-1.584,3.824
		c0,1.445,0.563,2.803,1.584,3.824c1.022,1.022,2.38,1.584,3.824,1.584c0.856,0,1.682-0.199,2.425-0.573
		c4.283,5.56,6.723,12.372,6.953,19.398c-1.515-0.374-3.096-0.576-4.724-0.576c-5.005,0-9.577,1.877-13.058,4.961
		c-0.111-1.163-0.347-2.031-0.465-2.398c-0.126-0.429-0.448-0.78-0.877-0.937c-0.087-0.032-0.788-0.28-1.878-0.439
		c4.655-4.954,3.118-10.741,2.755-11.871c-0.126-0.429-0.448-0.78-0.877-0.937c-0.2-0.073-3.684-1.302-7.654,0.08
		c0.224-0.92,0.355-1.931,0.355-3.04c0-7.098-5.375-10.217-6.453-10.771c-0.392-0.215-0.869-0.235-1.283-0.042
		c-0.267,0.124-6.537,3.125-6.537,10.813c0,1.112,0.132,2.125,0.357,3.046c-3.977-1.391-7.471-0.159-7.671-0.086
		c-0.429,0.157-0.751,0.507-0.877,0.937c-0.363,1.13-1.9,6.918,2.755,11.871c-1.09,0.159-1.791,0.408-1.878,0.439
		c-0.429,0.157-0.752,0.508-0.877,0.937c-0.371,1.154-1.966,7.161,3.053,12.18c2.904,2.904,6.128,3.597,8.543,3.597
		c0.894,0,1.676-0.095,2.291-0.208v9.313c0,0.786,0.637,1.423,1.423,1.423c0.786,0,1.423-0.637,1.423-1.423v-9.317
		c0.618,0.114,1.407,0.212,2.311,0.212c1.617,0,3.596-0.328,5.599-1.406c-0.129,0.911-0.201,1.84-0.201,2.787
		c0,4.789,1.717,9.183,4.567,12.603c-4.185,1.878-8.813,2.937-13.69,2.937c-1.993,0-3.989-0.176-5.934-0.522
		c-0.773-0.138-1.513,0.377-1.651,1.152c-0.138,0.774,0.378,1.513,1.151,1.651c2.109,0.376,4.273,0.566,6.433,0.566
		c5.568,0,10.939-1.256,15.81-3.606c3.478,3.07,8.04,4.939,13.033,4.939c10.874,0,19.72-8.846,19.72-19.72
		C85,59.199,79.987,52.164,72.87,49.185z M62.437,25.817c-0.484,0.484-1.127,0.75-1.812,0.75s-1.328-0.266-1.812-0.75
		c-0.999-0.999-0.999-2.624,0-3.623c0.484-0.484,1.127-0.75,1.812-0.75s1.328,0.266,1.812,0.75c0.484,0.484,0.75,1.127,0.75,1.812
		C63.188,24.69,62.921,25.334,62.437,25.817z M35.003,61.358c-0.032,0.646-0.122,1.189-0.209,1.579
		c-1.521,0.338-5.328,0.74-8.612-2.545c-3.235-3.235-2.896-6.978-2.538-8.611c0.957-0.208,2.823-0.44,4.89,0.231
		c0.136,0.051,0.272,0.099,0.407,0.144c1.094,0.415,2.231,1.093,3.308,2.169c2.052,2.052,2.665,4.308,2.754,6.082V61.358z
		 M35.003,48.111c-0.032,0.646-0.122,1.189-0.209,1.579c-0.943,0.21-2.762,0.442-4.792-0.191c-0.206-0.079-0.41-0.151-0.613-0.217
		c-1.062-0.419-2.161-1.091-3.207-2.137c-3.235-3.235-2.896-6.978-2.537-8.611c1.52-0.33,5.337-0.723,8.604,2.544
		c0.021,0.021,0.04,0.042,0.06,0.062c0.125,0.14,0.25,0.274,0.375,0.403c1.704,1.923,2.237,3.976,2.319,5.618V48.111z
		 M36.447,40.969c-0.446-0.286-1.089-0.758-1.742-1.439c-0.067-0.073-0.134-0.146-0.203-0.219c-1.189-1.321-2.348-3.347-2.348-6.23
		c0-4.64,2.969-7.047,4.283-7.885c1.407,0.9,4.297,3.308,4.297,7.885c0,2.72-1.021,4.672-2.13,5.991
		c-0.231,0.231-0.446,0.464-0.65,0.698C37.386,40.324,36.841,40.718,36.447,40.969z M37.859,47.649
		c-0.002-1.671,0.43-3.882,2.2-5.959c0.21-0.208,0.42-0.433,0.629-0.674c3.266-3.213,7.028-2.82,8.54-2.486
		c0.358,1.632,0.7,5.378-2.537,8.614c-1.044,1.045-2.141,1.715-3.201,2.135c-0.207,0.066-0.414,0.14-0.624,0.22
		c-2.029,0.632-3.848,0.399-4.787,0.19c-0.105-0.474-0.217-1.171-0.221-2.005C37.859,47.674,37.859,47.661,37.859,47.649z
		 M46.691,60.392c-3.285,3.285-7.091,2.882-8.609,2.546c-0.331-1.514-0.731-5.339,2.542-8.613c1.047-1.047,2.147-1.719,3.21-2.138
		c0.203-0.065,0.407-0.137,0.612-0.216c2.025-0.632,3.84-0.401,4.782-0.193c0.198,0.903,0.389,2.456-0.028,4.21
		c-0.902,1.269-1.658,2.649-2.242,4.115C46.869,60.2,46.787,60.297,46.691,60.392z M65.28,84.437
		c-9.404,0-17.054-7.65-17.054-17.054c0-9.404,7.65-17.054,17.054-17.054s17.054,7.65,17.054,17.054
		C82.334,76.787,74.684,84.437,65.28,84.437z"/>
	<path d="M66.008,56.812h-5.914v10.8h-2.8v1.857h2.8v2.4h-2.8v1.8h2.8v4.286h2.114v-4.286h7.343v-1.8h-7.343v-2.4h3.8
		c5.343,0,7.258-3.171,7.258-6.314C73.266,60.754,72.208,56.812,66.008,56.812z M66.037,67.612h-3.829v-8.886h3.829
		c3.772,0,5.114,2.2,5.114,4.457C71.151,65.383,69.809,67.612,66.037,67.612z"/>
</g>
</svg>
