<?xml version="1.0" encoding="utf-8"?>
<!-- Generator: Adobe Illustrator 17.0.0, SVG Export Plug-In . SVG Version: 6.00 Build 0)  -->
<!DOCTYPE svg PUBLIC "-//W3C//DTD SVG 1.1//EN" "http://www.w3.org/Graphics/SVG/1.1/DTD/svg11.dtd" [
	<!ENTITY ns_extend "http://ns.adobe.com/Extensibility/1.0/">
	<!ENTITY ns_ai "http://ns.adobe.com/AdobeIllustrator/10.0/">
	<!ENTITY ns_graphs "http://ns.adobe.com/Graphs/1.0/">
	<!ENTITY ns_vars "http://ns.adobe.com/Variables/1.0/">
	<!ENTITY ns_imrep "http://ns.adobe.com/ImageReplacement/1.0/">
	<!ENTITY ns_sfw "http://ns.adobe.com/SaveForWeb/1.0/">
	<!ENTITY ns_custom "http://ns.adobe.com/GenericCustomNamespace/1.0/">
	<!ENTITY ns_adobe_xpath "http://ns.adobe.com/XPath/1.0/">
]>
<svg version="1.1" id="Layer_1" xmlns:x="&ns_extend;" xmlns:i="&ns_ai;" xmlns:graph="&ns_graphs;"
	 xmlns="http://www.w3.org/2000/svg" xmlns:xlink="http://www.w3.org/1999/xlink" x="0px" y="0px" width="110px" height="100px"
	 viewBox="0 0 110 100" enable-background="new 0 0 110 100" xml:space="preserve">
<metadata>
	<sfw  xmlns="&ns_sfw;">
		<slices></slices>
		<sliceSourceBounds  width="110" height="100" x="0" y="-98.542" bottomLeftOrigin="true"></sliceSourceBounds>
	</sfw>
</metadata>
<g>
	<g opacity="0.5">
		<path fill="#FFCC00" d="M60,100l-50-50L60,0l50,50L60,100z M17.751,50L60,92.249L102.25,50L60,7.751L17.751,50z"/>
	</g>
	<g>
		<path d="M20.296,51.484c0.095,0.014,0.187,0.047,0.305,0.078c0,1.048,0,2.066,0,3.125c-0.101,0.041-0.209,0.109-0.326,0.128
			c-0.662,0.108-1.017,0.532-1,1.16c0.019,0.685,0.472,1.044,1.151,1.102c0.153,0.013,0.307,0.015,0.46,0.017
			c1.804,0.023,2.054-0.221,2.054-1.999c0-1.459,0.006-2.919-0.002-4.378c-0.006-1.124-0.395-1.505-1.533-1.523
			c-0.332-0.005-0.668-0.018-0.997,0.018c-0.667,0.073-1.126,0.441-1.134,1.127C19.268,50.971,19.635,51.388,20.296,51.484z"/>
		<path d="M10.377,54.083c0.587,0.024,1.176,0.005,1.764,0.005c0-0.001,0-0.002,0-0.003c0.614,0,1.228,0.023,1.841-0.006
			c0.648-0.031,1.044-0.389,1.107-1.046c0.06-0.623-0.349-1.181-1.017-1.21c-1.275-0.057-2.556-0.054-3.832,0.001
			c-0.675,0.029-1.067,0.565-1.033,1.195C9.241,53.64,9.677,54.055,10.377,54.083z"/>
		<path d="M14.018,55.132c-0.636-0.038-1.276-0.008-1.914-0.007c-0.612,0.001-1.227-0.028-1.837,0.008
			c-0.652,0.039-1.036,0.416-1.056,1.08c-0.02,0.664,0.34,1.112,0.988,1.138c1.298,0.052,2.6,0.053,3.898-0.002
			c0.645-0.027,1.01-0.481,0.986-1.142C15.06,55.546,14.666,55.17,14.018,55.132z"/>
		<path d="M16.438,67.121c-3.233-0.001-5.915,2.703-5.885,5.933c0.031,3.258,2.721,5.93,5.938,5.898
			c3.21-0.032,5.851-2.666,5.893-5.874C22.427,69.822,19.731,67.122,16.438,67.121z M16.435,76.647
			c-1.978-0.022-3.593-1.671-3.573-3.649c0.02-2.003,1.624-3.579,3.63-3.566c1.988,0.013,3.603,1.649,3.581,3.626
			C20.051,75.041,18.4,76.669,16.435,76.647z"/>
		<path d="M86.5,49.189c0-9.907-8.06-17.967-17.967-17.967c-1.334,0-2.631,0.157-3.883,0.434c-0.017-2.836-0.053-5.37-0.13-6.382
			c-0.186-2.452-2.656-4.734-5.136-4.824c-3.197-0.115-6.399-0.085-9.599-0.092c-5.096-0.011-10.191,0.001-15.287,0
			c-0.226,0-0.453-0.022-0.806-0.041c0-1.091,0.026-2.154-0.007-3.215c-0.038-1.192-0.611-2.097-1.644-2.685
			c-2.073-1.181-4.72,0.159-4.824,2.539c-0.119,2.735-0.062,5.478-0.064,8.217c-0.005,5.582-0.008,11.164,0.019,16.747
			c0.003,0.634-0.161,0.871-0.811,0.991c-2.173,0.401-9.2,1.992-12.427,2.684c-0.192-0.037-0.408-0.041-0.652,0.003
			c-1.107,0.199-2.209,0.427-3.31,0.658c-1.426,0.299-2.869,0.539-4.269,0.932c-3.377,0.949-5.581,3.693-5.655,7.186
			c-0.086,4.07-0.032,8.142-0.022,12.214c0.002,0.882,0.448,1.305,1.341,1.321c1.017,0.018,2.035,0.004,3.119,0.004
			C2.848,72.35,3.158,76.538,5.812,80.41c2.1,3.063,5.06,4.864,8.732,5.452c7.844,1.257,15.713-5.298,14.899-14.089
			c0.282,0,0.555,0,0.829,0c2.561,0,5.122,0.023,7.682-0.016c0.619-0.009,0.904,0.165,1.074,0.766
			c0.571,2.012,1.533,3.838,2.762,5.529c0.69,0.949,1.303,1.202,1.94,0.766c0.649-0.445,0.638-1.114-0.051-2.068
			c-2.449-3.393-3.506-7.181-3.205-11.348c0.454-6.273,4.572-11.757,10.214-14.183c0.226,1.996,0.789,3.887,1.617,5.632
			c-3.63,1.853-6.113,5.602-6.093,9.937c0.029,6.199,5.023,11.152,11.212,11.121c5.99-0.031,10.885-4.841,11.088-10.754
			c0.007,0,0.014,0.001,0.021,0.001c2.007,0,3.932-0.345,5.736-0.955c0.16,5.231-2.098,10.455-6.376,13.814
			c-5.839,4.584-13.643,4.932-19.857,0.886c-1.021-0.665-1.631-0.67-2.079-0.018c-0.453,0.659-0.183,1.286,0.846,1.962
			c11.032,7.241,25.939,1.46,29.194-11.332c0.535-2.102,0.716-4.191,0.548-6.265C82.437,62.295,86.5,56.215,86.5,49.189z
			 M33.749,22.723c0.274-0.019,0.542-0.053,0.81-0.053c7.861-0.003,15.722-0.005,23.583-0.001c2.775,0.001,4.221,1.444,4.226,4.204
			c0.001,0.716,0.001,2.938,0,5.462c-1.359,0.499-2.651,1.14-3.834,1.936c0-1.759-0.001-3.519,0-5.278
			c0.001-2.211-1.022-3.222-3.251-3.22c-6.914,0.004-13.827,0.004-20.741,0.004c-0.25,0-0.5-0.022-0.794-0.036
			C33.749,24.732,33.749,23.772,33.749,22.723z M51.461,43.619c-0.388,0.068-0.774,0.136-1.165,0.205c0-5.207,0-10.443,0-15.741
			c1.659,0,3.268-0.001,4.877,0c1.046,0.001,1.05,0.004,1.05,1.089c0,2.321,0,4.643,0,6.964
			C54.063,38.175,52.405,40.733,51.461,43.619z M47.917,28.279c0.006,5.376,0.016,10.752-0.002,16.128
			c-0.001,0.205-0.228,0.505-0.426,0.598c-4.161,1.942-7.523,4.805-10.076,8.625c-0.124,0.186-0.371,0.401-0.569,0.409
			c-1.015,0.041-2.034,0.019-3.09,0.019c0-8.73,0-17.321,0-25.91c4.747,0,9.44,0,14.101,0
			C47.897,28.235,47.917,28.257,47.917,28.279z M30.467,16.295c0.655,0.026,0.928,0.484,0.928,1.567
			c0.001,11.777,0.001,23.554-0.001,35.332c0,0.271-0.025,0.541-0.039,0.835c-0.634,0-1.189,0-1.885,0c0-0.376,0-0.678,0-0.981
			c-0.002-11.726-0.005-23.452-0.007-35.178C29.463,16.761,29.782,16.267,30.467,16.295z M2.324,65.608c0-0.271,0-0.514,0-0.756
			c0.001-3.303-0.002-6.607,0.005-9.91c0.006-3.037,1.581-5.021,4.557-5.682c1.875-0.416,3.76-0.789,5.642-1.173
			c0.23,0.054,0.493,0.062,0.786,0.004c1.58-0.312,9.291-2.068,10.869-2.392c0.946-0.194,1.893-0.381,2.914-0.585
			c0,3.012,0,5.94-0.001,8.868c-2.067,0.629-2.577,1.332-2.578,3.557c-0.001,1.688,0,3.376,0,5.199
			c-0.264-0.148-0.432-0.226-0.582-0.33c-5.716-3.967-13.394-2.829-17.665,2.637c-0.31,0.397-0.616,0.603-1.141,0.576
			C4.237,65.574,3.34,65.608,2.324,65.608z M16.437,83.711c-5.844,0.007-10.651-4.816-10.638-10.674
			c0.014-5.936,4.781-10.696,10.694-10.678c5.877,0.018,10.641,4.783,10.653,10.656C27.158,78.897,22.346,83.704,16.437,83.711z
			 M38.292,69.384c-0.149,0.041-0.22,0.077-0.291,0.077c-2.867,0.004-5.735,0.015-8.602-0.016c-0.208-0.002-0.49-0.274-0.605-0.491
			c-0.584-1.102-1.128-2.225-1.678-3.345c-0.11-0.224-0.265-0.463-0.267-0.696c-0.022-2.637-0.018-5.274-0.021-7.911
			c0-0.441,0.201-0.663,0.659-0.639c0.292,0.015,0.586,0.003,0.93,0.003c0,0.405,0,0.684,0,0.962c0,2.279,0.008,4.557-0.003,6.836
			c-0.004,0.735,0.253,1.31,1.021,1.381c0.861,0.079,1.741,0.069,2.604-0.008c0.637-0.057,1.013-0.528,0.97-1.175
			c-0.043-0.639-0.446-1.02-1.104-1.061c-0.372-0.023-0.747-0.004-1.111-0.004c0-2.374,0-4.633,0-6.888c1.777,0,3.483,0,5.235,0
			c0.103,2.215,1.403,3.062,3.55,2.98C38.279,62.665,37.841,65.947,38.292,69.384z M41.257,56.26
			c-0.388,0.606-0.776,0.99-1.545,0.897c-0.429-0.103-0.857-0.207-1.286-0.31c0.159-0.415,0.262-0.862,0.484-1.24
			c2.747-4.677,7.081-7.854,11.92-9.371c-0.137,0.821-0.221,1.659-0.242,2.513C46.913,50.107,43.598,52.606,41.257,56.26z
			 M57.437,75.604c-4.923,0.031-8.903-3.907-8.919-8.825c-0.011-3.46,1.992-6.464,4.897-7.921c2.8,4.363,7.427,7.433,12.798,8.13
			C66.097,71.707,62.197,75.573,57.437,75.604z M68.533,64.156c-8.253,0-14.967-6.714-14.967-14.967s6.714-14.967,14.967-14.967
			S83.5,40.936,83.5,49.189S76.786,64.156,68.533,64.156z"/>
		<path d="M69.311,39.321h-5.296v9.672h-2.508v1.663h2.508v2.149h-2.508v1.612h2.508v3.838h1.893v-3.838h6.576v-1.612h-6.576v-2.149
			h3.403c4.785,0,6.5-2.84,6.5-5.655C75.811,42.852,74.864,39.321,69.311,39.321z M69.337,48.994h-3.429v-7.958h3.429
			c3.378,0,4.58,1.97,4.58,3.992C73.917,46.998,72.715,48.994,69.337,48.994z"/>
	</g>
</g>
</svg>
