<?xml version="1.0" encoding="utf-8"?>
<!-- Generator: Adobe Illustrator 17.0.0, SVG Export Plug-In . SVG Version: 6.00 Build 0)  -->
<!DOCTYPE svg PUBLIC "-//W3C//DTD SVG 1.1//EN" "http://www.w3.org/Graphics/SVG/1.1/DTD/svg11.dtd">
<svg version="1.1" id="Layer_1" xmlns="http://www.w3.org/2000/svg" xmlns:xlink="http://www.w3.org/1999/xlink" x="0px" y="0px"
	 width="180px" height="98.173px" viewBox="453.312 320.074 180 98.173" enable-background="new 453.312 320.074 180 98.173"
	 xml:space="preserve">
<g>
	<path fill="#E0E0E0" d="M527.24,373.57l19.411-29.573c-0.008,0-0.014,0-0.023,0l-1.917-0.005l-69.56,0.005
		c-0.008,0-0.015,0-0.023,0l19.41,29.573H527.24z"/>
	<path fill="#FFCC00" d="M543.312,382.184c-6.014,0-10.907,4.893-10.907,10.907s4.893,10.907,10.907,10.907
		c6.014,0,10.907-4.893,10.907-10.907S549.326,382.184,543.312,382.184z"/>
	<path fill="#FFCC00" d="M478.468,382.184c-6.014,0-10.907,4.893-10.907,10.907s4.893,10.907,10.907,10.907
		c6.014,0,10.907-4.893,10.907-10.907S484.482,382.184,478.468,382.184z"/>
	<path fill="#FFCC00" d="M608.156,367.934c2.991,0,5.85,0.552,8.513,1.515l-1.228-4.624h-23.434c-2.074,0-4.094-0.731-5.687-2.059
		l-5.556-4.63c-2.443-2.036-3.843-5.026-3.843-8.206v-26.483h-1.911c-2.046,0-3.711,1.665-3.711,3.711h0v46.15h21.371
		C596.944,369.954,602.313,367.934,608.156,367.934z"/>
	<path fill="#FFCC00" d="M497.493,376.681c3.809,4.41,6.131,10.139,6.131,16.409c0,0.013-0.002,0.026-0.002,0.04h14.536
		c0-0.013-0.002-0.026-0.002-0.04c0-6.271,2.322-11.999,6.131-16.409H497.493z"/>
	<path fill="#FFCC00" d="M608.156,382.184c-6.014,0-10.907,4.893-10.907,10.907s4.893,10.907,10.907,10.907
		c6.014,0,10.907-4.893,10.907-10.907S614.17,382.184,608.156,382.184z"/>
	<path fill="#FFCC00" d="M562.337,376.681c3.809,4.41,6.131,10.139,6.131,16.409c0,0.013-0.002,0.026-0.002,0.04h14.536
		c0-0.013-0.002-0.026-0.002-0.04c0-6.271,2.322-11.999,6.131-16.409H562.337z"/>
	<path d="M478.468,378.811c-7.874,0-14.28,6.406-14.28,14.28c0,7.874,6.406,14.28,14.28,14.28c7.874,0,14.28-6.406,14.28-14.28
		C492.748,385.216,486.342,378.811,478.468,378.811z M478.468,403.997c-6.014,0-10.907-4.893-10.907-10.907
		s4.893-10.907,10.907-10.907c6.014,0,10.907,4.893,10.907,10.907S484.482,403.997,478.468,403.997z"/>
	<path d="M543.312,378.811c-7.874,0-14.28,6.406-14.28,14.28c0,7.874,6.406,14.28,14.28,14.28c7.874,0,14.28-6.406,14.28-14.28
		C557.592,385.216,551.186,378.811,543.312,378.811z M543.312,403.997c-6.014,0-10.907-4.893-10.907-10.907
		s4.893-10.907,10.907-10.907c6.014,0,10.907,4.893,10.907,10.907S549.326,403.997,543.312,403.997z"/>
	<path d="M608.156,378.811c-7.874,0-14.28,6.406-14.28,14.28c0,7.874,6.406,14.28,14.28,14.28c7.874,0,14.28-6.406,14.28-14.28
		C622.436,385.216,616.03,378.811,608.156,378.811z M608.156,403.997c-6.014,0-10.907-4.893-10.907-10.907
		s4.893-10.907,10.907-10.907c6.014,0,10.907,4.893,10.907,10.907S614.17,403.997,608.156,403.997z"/>
	<path d="M621.154,371.593c0.046,0.007,0.072,0.012,0.072,0.012l-1.892-5.296l-2.821-10.479l-8.718-32.383h1.397
		c0.931,0,1.687-0.755,1.687-1.687c0-0.931-0.755-1.687-1.687-1.687h-34.182c-3.906,0-7.084,3.178-7.084,7.084v28.897l0,3.373v13.88
		h-9.127c-4.275-3.354-9.644-5.373-15.487-5.373c-3.849,0-7.491,0.879-10.751,2.436l17.734-27.017
		c0.189-0.287,0.228-0.622,0.124-0.93c0.063-0.311,0.06-0.634,0.052-0.953l-0.007-13.662l0.007-0.436
		c0.015-0.664,0.03-1.351-0.594-1.899c-0.713-0.628-1.775-0.628-3.245-0.628l-69.563,0.005l-1.922-0.005
		c-1.47,0-2.531,0-3.246,0.628c-0.624,0.549-0.608,1.236-0.593,1.901l0.006,13.661l-0.006,0.435
		c-0.007,0.319-0.011,0.642,0.052,0.953c-0.103,0.308-0.064,0.643,0.124,0.93l17.733,27.017c-3.26-1.557-6.902-2.435-10.75-2.435
		c-13.871,0-25.156,11.285-25.156,25.156c0,13.871,11.285,25.156,25.156,25.156c12.71,0,23.222-9.485,24.897-21.743h15.051
		c1.675,12.258,12.186,21.743,24.897,21.743s23.222-9.485,24.897-21.743h15.051c1.675,12.258,12.186,21.743,24.897,21.743
		c13.871,0,25.156-11.285,25.156-25.156C633.312,383.979,628.426,376.008,621.154,371.593z M580.294,323.447H604.3l10.232,38.005
		h-22.526c-0.956,0-1.894-0.252-2.718-0.719v-31.777c0-0.931-0.755-1.687-1.687-1.687c-0.932,0-1.687,0.755-1.687,1.687v29.082
		l-2.992-2.493c-1.671-1.393-2.63-3.439-2.63-5.615V323.447z M571.298,327.157L571.298,327.157c0-2.046,1.665-3.711,3.711-3.711
		h1.911v26.483c0,3.18,1.401,6.171,3.843,8.206l5.556,4.63c1.593,1.328,3.613,2.059,5.687,2.059h23.434l1.228,4.624
		c-2.664-0.962-5.522-1.515-8.513-1.515c-5.842,0-11.212,2.019-15.487,5.373h-21.371V327.157z M474.11,327.326
		c-0.001-0.017-0.001-0.034-0.001-0.05c0.361-0.015,0.816-0.015,1.038-0.015l69.564,0.005l1.921-0.005c0.222,0,0.676,0,1.037,0.014
		c0,0.017-0.001,0.032-0.001,0.05l-0.007,13.709l0.007,0.483c0,0.011,0,0.022,0.001,0.033h-73.56c0-0.011,0-0.021,0.001-0.033
		l0.007-13.709L474.11,327.326z M475.151,343.998l69.56-0.005l1.917,0.005c0.008,0,0.015,0,0.023,0L527.24,373.57h-32.702
		l-19.41-29.573C475.136,343.998,475.143,343.998,475.151,343.998z M529.638,373.421l-0.362,0.551
		c-0.249,0.379-0.714,0.613-1.219,0.613h-0.06C528.528,374.176,529.075,373.788,529.638,373.421z M493.783,374.585h-0.061
		c-0.505,0-0.972-0.234-1.219-0.613l-0.362-0.552C492.703,373.787,493.251,374.175,493.783,374.585z M478.468,414.882
		c-12.017,0-21.792-9.776-21.792-21.792c0-12.017,9.776-21.792,21.792-21.792c12.017,0,21.792,9.776,21.792,21.792
		C500.26,405.107,490.484,414.882,478.468,414.882z M518.158,393.13h-14.536c0-0.013,0.002-0.026,0.002-0.04
		c0-6.271-2.322-11.999-6.131-16.409h26.794c-3.809,4.41-6.131,10.139-6.131,16.409C518.156,393.104,518.158,393.117,518.158,393.13
		z M543.312,414.882c-12.017,0-21.792-9.776-21.792-21.792c0-6.546,2.914-12.411,7.498-16.409h0.014v-0.013
		c3.829-3.334,8.816-5.37,14.28-5.37c12.017,0,21.792,9.776,21.792,21.792C565.104,405.107,555.328,414.882,543.312,414.882z
		 M583.002,393.13h-14.536c0-0.013,0.002-0.026,0.002-0.04c0-6.271-2.322-11.999-6.131-16.409h26.794
		c-3.809,4.41-6.131,10.139-6.131,16.409C583,393.104,583.002,393.117,583.002,393.13z M608.156,414.882
		c-12.017,0-21.792-9.776-21.792-21.792c0-12.017,9.776-21.792,21.792-21.792s21.792,9.776,21.792,21.792
		C629.948,405.107,620.172,414.882,608.156,414.882z"/>
	<path d="M493.722,374.585h34.336c0.505,0,0.97-0.234,1.219-0.613l1.893-2.884c-1.174,0.653-2.293,1.395-3.345,2.22h-33.87
		c-1.052-0.825-2.171-1.567-3.346-2.221l1.894,2.885C492.75,374.351,493.217,374.585,493.722,374.585z"/>
</g>
</svg>
