<?xml version="1.0" encoding="utf-8"?>
<!-- Generator: Adobe Illustrator 17.0.0, SVG Export Plug-In . SVG Version: 6.00 Build 0)  -->
<!DOCTYPE svg PUBLIC "-//W3C//DTD SVG 1.1//EN" "http://www.w3.org/Graphics/SVG/1.1/DTD/svg11.dtd">
<svg version="1.1" id="Layer_1" xmlns="http://www.w3.org/2000/svg" xmlns:xlink="http://www.w3.org/1999/xlink" x="0px" y="0px"
	 width="180px" height="98.173px" viewBox="-173.223 30.708 180 98.173" enable-background="new -173.223 30.708 180 98.173"
	 xml:space="preserve">
<g>
	<path fill="#FFCC00" d="M-83.223,92.818c-6.014,0-10.907,4.893-10.907,10.907c0,6.014,4.893,10.907,10.907,10.907
		c6.014,0,10.907-4.893,10.907-10.907C-72.316,97.711-77.209,92.818-83.223,92.818z"/>
	<path fill="#FFCC00" d="M-148.067,92.818c-6.014,0-10.907,4.893-10.907,10.907c0,6.014,4.893,10.907,10.907,10.907
		s10.907-4.893,10.907-10.907C-137.16,97.711-142.053,92.818-148.067,92.818z"/>
	<path fill="#FFCC00" d="M-18.379,78.569c2.991,0,5.85,0.552,8.513,1.515l-1.228-4.624h-23.434c-2.074,0-4.094-0.731-5.687-2.059
		l-5.556-4.63c-2.443-2.036-3.843-5.027-3.843-8.206V34.081h-1.911c-2.046,0-3.711,1.665-3.711,3.711h0v46.15h21.371
		C-29.591,80.588-24.222,78.569-18.379,78.569z"/>
	<path fill="#FFCC00" d="M-129.042,87.315c3.809,4.41,6.131,10.139,6.131,16.409c0,0.014-0.002,0.026-0.002,0.04h14.536
		c0-0.014-0.002-0.026-0.002-0.04c0-6.271,2.322-11.999,6.131-16.409H-129.042z"/>
	<path fill="#FFCC00" d="M-18.379,92.818c-6.014,0-10.907,4.893-10.907,10.907c0,6.014,4.893,10.907,10.907,10.907
		s10.907-4.893,10.907-10.907C-7.472,97.711-12.365,92.818-18.379,92.818z"/>
	<path fill="#FFCC00" d="M-64.198,87.315c3.809,4.41,6.131,10.139,6.131,16.409c0,0.014-0.002,0.026-0.002,0.04h14.536
		c0-0.014-0.002-0.026-0.002-0.04c0-6.271,2.322-11.999,6.131-16.409H-64.198z"/>
	<path d="M-148.067,89.445c-7.874,0-14.28,6.406-14.28,14.28s6.406,14.28,14.28,14.28c7.874,0,14.28-6.406,14.28-14.28
		S-140.193,89.445-148.067,89.445z M-148.067,114.631c-6.014,0-10.907-4.893-10.907-10.907c0-6.014,4.893-10.907,10.907-10.907
		s10.907,4.893,10.907,10.907C-137.16,109.739-142.053,114.631-148.067,114.631z"/>
	<path d="M-83.223,89.445c-7.874,0-14.28,6.406-14.28,14.28s6.406,14.28,14.28,14.28c7.874,0,14.28-6.406,14.28-14.28
		S-75.349,89.445-83.223,89.445z M-83.223,114.631c-6.014,0-10.907-4.893-10.907-10.907c0-6.014,4.893-10.907,10.907-10.907
		c6.014,0,10.907,4.893,10.907,10.907C-72.316,109.739-77.209,114.631-83.223,114.631z"/>
	<path d="M-18.379,89.445c-7.874,0-14.28,6.406-14.28,14.28s6.406,14.28,14.28,14.28c7.874,0,14.28-6.406,14.28-14.28
		S-10.505,89.445-18.379,89.445z M-18.379,114.631c-6.014,0-10.907-4.893-10.907-10.907c0-6.014,4.893-10.907,10.907-10.907
		s10.907,4.893,10.907,10.907C-7.472,109.739-12.365,114.631-18.379,114.631z"/>
	<path d="M-5.381,82.228c0.046,0.007,0.072,0.012,0.072,0.012l-1.892-5.296l-2.821-10.479l-8.718-32.383h1.397
		c0.931,0,1.687-0.755,1.687-1.687c0-0.931-0.755-1.687-1.687-1.687h-34.182c-3.906,0-7.084,3.178-7.084,7.084v28.897l0,3.373v13.88
		h-9.127c-4.275-3.354-9.644-5.373-15.487-5.373s-11.212,2.019-15.487,5.373h-33.87c-4.275-3.354-9.644-5.373-15.487-5.373
		c-13.871,0-25.156,11.285-25.156,25.156s11.285,25.156,25.156,25.156c12.71,0,23.222-9.485,24.897-21.743h15.051
		c1.675,12.258,12.186,21.743,24.897,21.743s23.222-9.485,24.897-21.743h15.051c1.675,12.258,12.186,21.743,24.897,21.743
		c13.871,0,25.156-11.285,25.156-25.156C6.777,94.613,1.891,86.642-5.381,82.228z M-46.241,34.081h24.007l10.232,38.005h-22.526
		c-0.956,0-1.894-0.252-2.718-0.718V39.591c0-0.931-0.755-1.687-1.687-1.687s-1.687,0.755-1.687,1.687v29.082l-2.992-2.493
		c-1.671-1.393-2.63-3.439-2.63-5.615V34.081z M-55.237,37.792L-55.237,37.792c0-2.046,1.665-3.711,3.711-3.711h1.911v26.483
		c0,3.18,1.401,6.171,3.843,8.206l5.556,4.63c1.593,1.328,3.613,2.059,5.687,2.059h23.434l1.228,4.624
		c-2.664-0.962-5.522-1.515-8.513-1.515c-5.842,0-11.212,2.019-15.487,5.373h-21.371V37.792z M-148.067,125.517
		c-12.017,0-21.792-9.776-21.792-21.792s9.776-21.792,21.792-21.792c12.017,0,21.792,9.776,21.792,21.792
		S-136.051,125.517-148.067,125.517z M-108.377,103.765h-14.536c0-0.014,0.002-0.026,0.002-0.04c0-6.271-2.322-11.999-6.131-16.409
		h26.794c-3.809,4.41-6.131,10.139-6.131,16.409C-108.379,103.738-108.377,103.751-108.377,103.765z M-83.223,125.517
		c-12.017,0-21.792-9.776-21.792-21.792c0-6.546,2.914-12.411,7.498-16.409h0.014v-0.013c3.829-3.334,8.816-5.37,14.28-5.37
		c12.017,0,21.792,9.776,21.792,21.792S-71.207,125.517-83.223,125.517z M-43.533,103.765h-14.536c0-0.014,0.002-0.026,0.002-0.04
		c0-6.271-2.322-11.999-6.131-16.409h26.794c-3.809,4.41-6.131,10.139-6.131,16.409C-43.535,103.738-43.533,103.751-43.533,103.765z
		 M-18.379,125.517c-12.017,0-21.792-9.776-21.792-21.792s9.776-21.792,21.792-21.792s21.792,9.776,21.792,21.792
		S-6.363,125.517-18.379,125.517z"/>
</g>
</svg>
