<?xml version="1.0" encoding="utf-8"?>
<!-- Generator: Adobe Illustrator 17.0.0, SVG Export Plug-In . SVG Version: 6.00 Build 0)  -->
<!DOCTYPE svg PUBLIC "-//W3C//DTD SVG 1.1//EN" "http://www.w3.org/Graphics/SVG/1.1/DTD/svg11.dtd">
<svg version="1.1" id="Layer_1" xmlns="http://www.w3.org/2000/svg" xmlns:xlink="http://www.w3.org/1999/xlink" x="0px" y="0px"
	 width="180px" height="98.173px" viewBox="234.474 332.708 180 98.173" enable-background="new 234.474 332.708 180 98.173"
	 xml:space="preserve">
<g>
	<g>
		<path fill="#E0E0E0" d="M331.757,343.692h-55.101c-5.479,0-9.921,4.807-9.921,10.737v21.922c0,5.93,4.442,10.737,9.921,10.737
			h33.595c1.193-1.09,2.586-1.908,4.214-2.397c0.029-0.009,0.054-0.003,0.082-0.008c1.262-0.966,2.673-1.477,4.157-1.755
			c0.91-0.37,1.905-0.62,3.153-0.615c1.612,0.006,3.206,0.098,4.798,0.237c0.421-0.02,0.839-0.046,1.25-0.089
			c0.053-0.011,0.1-0.03,0.163-0.027c0.019,0.001,0.039,0.005,0.058,0.006c0.02-0.002,0.04-0.003,0.059-0.006
			c0.13-0.016,0.238,0.006,0.335,0.045c2.632,0.241,5.46,1.648,7.41,3.603c3.391-1.707,5.747-5.417,5.747-9.731V354.43
			C341.678,348.5,337.237,343.692,331.757,343.692z"/>
	</g>
	<g>
		<path fill="#FFCC00" d="M324.474,394.818c-6.014,0-10.907,4.893-10.907,10.907s4.893,10.907,10.907,10.907
			s10.907-4.893,10.907-10.907S330.488,394.818,324.474,394.818z"/>
	</g>
	<g>
		<path fill="#FFCC00" d="M259.63,394.818c-6.014,0-10.907,4.893-10.907,10.907s4.893,10.907,10.907,10.907
			c6.014,0,10.907-4.893,10.907-10.907S265.644,394.818,259.63,394.818z"/>
	</g>
	<g>
		<path fill="#FFCC00" d="M389.318,380.569c2.991,0,5.85,0.552,8.513,1.515l-1.228-4.624h-23.434c-2.074,0-4.094-0.731-5.687-2.059
			l-5.556-4.63c-2.443-2.036-3.843-5.026-3.843-8.206v-26.483h-1.911c-2.046,0-3.711,1.665-3.711,3.711h0v46.15h21.371
			C378.106,382.588,383.476,380.569,389.318,380.569z"/>
	</g>
	<g>
		<path fill="#FFCC00" d="M278.655,389.315c3.809,4.41,6.131,10.139,6.131,16.409c0,0.013-0.002,0.026-0.002,0.04h14.536
			c0-0.013-0.002-0.026-0.002-0.04c0-6.271,2.322-11.999,6.131-16.409H278.655z"/>
	</g>
	<g>
		<path fill="#FFCC00" d="M389.318,394.818c-6.014,0-10.907,4.893-10.907,10.907s4.893,10.907,10.907,10.907
			s10.907-4.893,10.907-10.907S395.332,394.818,389.318,394.818z"/>
	</g>
	<g>
		<path fill="#FFCC00" d="M343.499,389.315c3.809,4.41,6.131,10.139,6.131,16.409c0,0.013-0.002,0.026-0.002,0.04h14.536
			c0-0.013-0.002-0.026-0.002-0.04c0-6.271,2.322-11.999,6.131-16.409H343.499z"/>
	</g>
	<g>
		<path d="M259.63,391.445c-7.874,0-14.28,6.406-14.28,14.28s6.406,14.28,14.28,14.28c7.874,0,14.28-6.406,14.28-14.28
			S267.504,391.445,259.63,391.445z M259.63,416.631c-6.014,0-10.907-4.893-10.907-10.907c0-6.014,4.893-10.907,10.907-10.907
			c6.014,0,10.907,4.893,10.907,10.907C270.537,411.739,265.644,416.631,259.63,416.631z"/>
		<path d="M324.474,391.445c-7.874,0-14.28,6.406-14.28,14.28s6.406,14.28,14.28,14.28c7.874,0,14.28-6.406,14.28-14.28
			S332.348,391.445,324.474,391.445z M324.474,416.631c-6.014,0-10.907-4.893-10.907-10.907c0-6.014,4.893-10.907,10.907-10.907
			c6.014,0,10.907,4.893,10.907,10.907C335.381,411.739,330.488,416.631,324.474,416.631z"/>
		<path d="M389.318,391.445c-7.874,0-14.28,6.406-14.28,14.28s6.406,14.28,14.28,14.28c7.874,0,14.28-6.406,14.28-14.28
			S397.192,391.445,389.318,391.445z M389.318,416.631c-6.014,0-10.907-4.893-10.907-10.907c0-6.014,4.893-10.907,10.907-10.907
			c6.014,0,10.907,4.893,10.907,10.907C400.225,411.739,395.332,416.631,389.318,416.631z"/>
		<path d="M402.316,384.228c0.046,0.007,0.072,0.012,0.072,0.012l-1.892-5.296l-2.821-10.479l-8.718-32.383h1.397
			c0.931,0,1.687-0.755,1.687-1.687c0-0.931-0.755-1.687-1.687-1.687h-34.182c-3.906,0-7.084,3.178-7.084,7.084v13.814h-6.047
			c-0.398-6.309-5.3-11.315-11.283-11.315h-55.101c-5.984,0-10.886,5.006-11.284,11.315h-27.515c-0.635,0-1.15,0.515-1.15,1.15
			s0.515,1.15,1.15,1.15h14.442l13.034,14.02v6.426c0,1.852,0.4,3.602,1.095,5.174c-2.164-0.613-4.44-0.957-6.799-0.957
			c-13.871,0-25.156,11.285-25.156,25.156c0,13.871,11.285,25.156,25.156,25.156c12.71,0,23.222-9.485,24.897-21.743h15.051
			c1.675,12.258,12.186,21.743,24.897,21.743s23.222-9.485,24.897-21.743h15.051c1.675,12.258,12.186,21.743,24.897,21.743
			c13.871,0,25.156-11.285,25.156-25.156C414.474,396.613,409.589,388.642,402.316,384.228z M361.456,336.081h24.007l10.232,38.005
			h-22.526c-0.956,0-1.894-0.252-2.718-0.718v-31.777c0-0.932-0.755-1.687-1.687-1.687c-0.932,0-1.687,0.755-1.687,1.687v29.082
			l-2.992-2.494c-1.671-1.393-2.63-3.439-2.63-5.615V336.081z M352.46,339.792L352.46,339.792c0-2.046,1.665-3.711,3.711-3.711
			h1.911v26.483c0,3.18,1.401,6.171,3.843,8.206l5.556,4.63c1.593,1.328,3.613,2.059,5.687,2.059h23.434l1.228,4.624
			c-2.664-0.962-5.522-1.515-8.513-1.515c-5.842,0-11.212,2.019-15.487,5.373H352.46V339.792z M287.972,355.905l-7.115,27.464
			l-0.209,0.091l-12.511-13.458v-14.098H287.972z M314.786,356.395l8.431,8.431l-13.868,6.071L314.786,356.395z M330.303,355.905
			h9.974v1.452l-12.78,5.595l2.876-6.104C330.523,356.531,330.474,356.183,330.303,355.905z M328.563,355.996l-3.635,7.714
			l-7.804-7.804h11.506C328.611,355.938,328.58,355.96,328.563,355.996z M306.964,371.561l-15.19-15.656h21.06L306.964,371.561z
			 M305.266,372.684l-22.079,9.665l6.629-25.588L305.266,372.684z M309.339,385.688h-28.042l0.065-0.028
			c0.063,0.012,0.126,0.024,0.189,0.024c0.346,0,0.664-0.184,0.845-0.477l24.778-10.847c0.057,0.01,0.115,0.031,0.172,0.031
			c0.117,0,0.229-0.026,0.337-0.065c0.032-0.011,0.06-0.029,0.091-0.044c0.078-0.037,0.15-0.083,0.216-0.14
			c0.016-0.014,0.037-0.019,0.053-0.034c0.012-0.012,0.017-0.029,0.028-0.041c0.042-0.045,0.078-0.095,0.112-0.149l17.16-7.512
			c0.075-0.009,0.148-0.023,0.22-0.049c0.031-0.011,0.059-0.025,0.088-0.039c0.08-0.038,0.153-0.086,0.221-0.144l14.405-6.306
			v16.483c0,3.073-1.372,5.786-3.47,7.486c-3.647-2.07-7.847-3.269-12.333-3.269C318.787,380.569,313.556,382.493,309.339,385.688z
			 M343.08,376.352v-17.71l6.008-2.63v12.678l0,3.373v13.88h-9.127c-0.23-0.181-0.476-0.342-0.713-0.515
			C341.593,383.204,343.08,379.965,343.08,376.352z M343.08,356.13v-0.225h0.514L343.08,356.13z M276.656,345.093h55.101
			c4.444,0,8.099,3.75,8.481,8.512h-72.064C268.557,348.843,272.212,345.093,276.656,345.093z M255.03,355.905h10.304v11.083
			L255.03,355.905z M268.137,376.352v-3.411l10.571,11.37l-3.004,1.315c-0.509-0.063-1.005-0.175-1.484-0.332
			c-1.011-0.725-2.075-1.377-3.189-1.949C269.261,381.633,268.137,379.136,268.137,376.352z M259.63,427.517
			c-12.017,0-21.792-9.776-21.792-21.792s9.776-21.792,21.792-21.792s21.792,9.776,21.792,21.792S271.646,427.517,259.63,427.517z
			 M299.32,405.765h-14.536c0-0.013,0.002-0.026,0.002-0.04c0-6.271-2.322-11.999-6.131-16.409h26.794
			c-3.809,4.41-6.131,10.139-6.131,16.409C299.318,405.738,299.32,405.751,299.32,405.765z M324.474,427.517
			c-12.017,0-21.792-9.776-21.792-21.792c0-6.546,2.914-12.411,7.498-16.409h0.014v-0.013c3.829-3.334,8.816-5.37,14.28-5.37
			c12.017,0,21.792,9.776,21.792,21.792S336.49,427.517,324.474,427.517z M364.164,405.765h-14.536c0-0.013,0.002-0.026,0.002-0.04
			c0-6.271-2.322-11.999-6.131-16.409h26.794c-3.809,4.41-6.131,10.139-6.131,16.409
			C364.162,405.738,364.164,405.751,364.164,405.765z M389.318,427.517c-12.017,0-21.792-9.776-21.792-21.792
			s9.776-21.792,21.792-21.792s21.792,9.776,21.792,21.792S401.334,427.517,389.318,427.517z"/>
	</g>
</g>
</svg>
