<?xml version="1.0" encoding="utf-8"?>
<!-- Generator: Adobe Illustrator 17.0.0, SVG Export Plug-In . SVG Version: 6.00 Build 0)  -->
<!DOCTYPE svg PUBLIC "-//W3C//DTD SVG 1.1//EN" "http://www.w3.org/Graphics/SVG/1.1/DTD/svg11.dtd">
<svg version="1.1" id="Layer_1" xmlns="http://www.w3.org/2000/svg" xmlns:xlink="http://www.w3.org/1999/xlink" x="0px" y="0px"
	 width="19.996px" height="20px" viewBox="246.852 245.999 19.996 20" enable-background="new 246.852 245.999 19.996 20"
	 xml:space="preserve">
<path d="M266.797,251.879c-0.047-1.063-0.219-1.793-0.465-2.426c-0.254-0.672-0.645-1.274-1.157-1.774
	c-0.5-0.508-1.106-0.903-1.77-1.153c-0.637-0.246-1.363-0.418-2.426-0.465c-1.071-0.051-1.41-0.063-4.126-0.063
	c-2.715,0-3.055,0.012-4.122,0.059c-1.063,0.047-1.793,0.219-2.426,0.465c-0.672,0.254-1.274,0.645-1.774,1.157
	c-0.508,0.5-0.902,1.106-1.153,1.77c-0.246,0.637-0.418,1.363-0.465,2.426c-0.051,1.071-0.063,1.411-0.063,4.126
	c0,2.715,0.012,3.055,0.059,4.122c0.047,1.063,0.219,1.793,0.465,2.426c0.254,0.672,0.648,1.274,1.156,1.774
	c0.5,0.508,1.106,0.903,1.77,1.153c0.637,0.246,1.363,0.418,2.426,0.465c1.066,0.047,1.407,0.059,4.122,0.059
	c2.715,0,3.055-0.012,4.122-0.059c1.063-0.047,1.793-0.219,2.426-0.465c1.344-0.52,2.407-1.582,2.926-2.926
	c0.246-0.637,0.418-1.364,0.465-2.426c0.047-1.067,0.059-1.407,0.059-4.122C266.848,253.286,266.844,252.946,266.797,251.879z
	 M264.996,260.045c-0.043,0.977-0.207,1.504-0.344,1.856c-0.336,0.871-1.028,1.563-1.899,1.899
	c-0.352,0.137-0.883,0.301-1.856,0.344c-1.055,0.047-1.371,0.059-4.04,0.059c-2.669,0-2.989-0.012-4.04-0.059
	c-0.977-0.043-1.504-0.207-1.856-0.344c-0.434-0.16-0.828-0.414-1.149-0.746c-0.332-0.324-0.586-0.715-0.746-1.149
	c-0.137-0.352-0.301-0.883-0.344-1.856c-0.047-1.055-0.059-1.371-0.059-4.04c0-2.669,0.012-2.989,0.059-4.04
	c0.043-0.977,0.207-1.504,0.344-1.856c0.16-0.434,0.414-0.828,0.75-1.149c0.324-0.332,0.715-0.586,1.149-0.746
	c0.352-0.137,0.883-0.301,1.856-0.344c1.055-0.047,1.371-0.059,4.04-0.059c2.672,0,2.989,0.012,4.04,0.059
	c0.977,0.043,1.504,0.207,1.856,0.344c0.434,0.16,0.828,0.414,1.149,0.746c0.332,0.324,0.586,0.715,0.746,1.149
	c0.137,0.352,0.301,0.883,0.344,1.856c0.047,1.055,0.059,1.371,0.059,4.04C265.055,258.678,265.043,258.99,264.996,260.045z"/>
<path d="M256.854,250.863c-2.836,0-5.138,2.301-5.138,5.138c0,2.837,2.301,5.138,5.138,5.138c2.837,0,5.138-2.301,5.138-5.138
	C261.991,253.165,259.69,250.863,256.854,250.863z M256.854,259.334c-1.84,0-3.333-1.492-3.333-3.333
	c0-1.84,1.493-3.333,3.333-3.333c1.84,0,3.333,1.492,3.333,3.333C260.186,257.841,258.694,259.334,256.854,259.334z"/>
<path d="M263.394,250.66c0,0.662-0.537,1.199-1.2,1.199c-0.662,0-1.199-0.537-1.199-1.199c0-0.663,0.537-1.199,1.199-1.199
	C262.857,249.461,263.394,249.998,263.394,250.66z"/>
</svg>
