<?xml version="1.0" encoding="utf-8"?>
<!-- Generator: Adobe Illustrator 17.0.0, SVG Export Plug-In . SVG Version: 6.00 Build 0)  -->
<!DOCTYPE svg PUBLIC "-//W3C//DTD SVG 1.1//EN" "http://www.w3.org/Graphics/SVG/1.1/DTD/svg11.dtd">
<svg version="1.1" id="Layer_1" xmlns="http://www.w3.org/2000/svg" xmlns:xlink="http://www.w3.org/1999/xlink" x="0px" y="0px"
	 width="115.174px" height="42.432px" viewBox="353.852 399.568 115.174 42.432"
	 enable-background="new 353.852 399.568 115.174 42.432" xml:space="preserve">
<g>
	<path fill="#E0E0E0" d="M447.809,411.842c-4.931,0-8.942,4.011-8.942,8.942s4.011,8.942,8.942,8.942
		c4.931,0,8.942-4.011,8.942-8.942S452.74,411.842,447.809,411.842z"/>
	<path d="M447.809,409.076c-6.455,0-11.707,5.252-11.707,11.707s5.252,11.707,11.707,11.707c6.455,0,11.707-5.252,11.707-11.707
		S454.265,409.076,447.809,409.076z M447.809,429.725c-4.931,0-8.942-4.011-8.942-8.942s4.011-8.942,8.942-8.942
		c4.931,0,8.942,4.011,8.942,8.942S452.74,429.725,447.809,429.725z"/>
	<g>
		<path d="M447.81,442c-11.698,0-21.216-9.517-21.216-21.216s9.517-21.216,21.216-21.216s21.216,9.517,21.216,21.216
			S459.508,442,447.81,442z M447.81,402.21c-10.242,0-18.574,8.332-18.574,18.574s8.332,18.574,18.574,18.574
			s18.574-8.332,18.574-18.574S458.051,402.21,447.81,402.21z"/>
	</g>
	<path fill="#E0E0E0" d="M402.685,414.23c-3.614,0-6.553,2.94-6.553,6.553s2.94,6.553,6.553,6.553s6.553-2.94,6.553-6.553
		S406.298,414.23,402.685,414.23z"/>
	<path d="M402.685,412.203c-4.731,0-8.58,3.849-8.58,8.58s3.849,8.58,8.58,8.58c4.731,0,8.58-3.849,8.58-8.58
		S407.416,412.203,402.685,412.203z M402.685,427.337c-3.614,0-6.553-2.94-6.553-6.553s2.94-6.553,6.553-6.553
		s6.553,2.94,6.553,6.553S406.298,427.337,402.685,427.337z"/>
	<g>
		<path d="M402.685,436.333c-8.574,0-15.549-6.975-15.549-15.549s6.975-15.549,15.549-15.549c8.574,0,15.549,6.975,15.549,15.549
			S411.259,436.333,402.685,436.333z M402.685,407.171c-7.506,0-13.613,6.107-13.613,13.613s6.107,13.613,13.613,13.613
			s13.613-6.107,13.613-13.613S410.191,407.171,402.685,407.171z"/>
	</g>
	<path fill="#E0E0E0" d="M366.141,415.604c-2.856,0-5.18,2.324-5.18,5.18s2.324,5.18,5.18,5.18s5.18-2.324,5.18-5.18
		S368.997,415.604,366.141,415.604z"/>
	<path d="M366.141,414.002c-3.739,0-6.782,3.042-6.782,6.782s3.042,6.782,6.782,6.782c3.739,0,6.782-3.042,6.782-6.782
		S369.88,414.002,366.141,414.002z M366.141,425.963c-2.856,0-5.18-2.324-5.18-5.18s2.324-5.18,5.18-5.18s5.18,2.324,5.18,5.18
		S368.997,425.963,366.141,425.963z"/>
	<g>
		<path d="M366.141,433.073c-6.777,0-12.29-5.513-12.29-12.29s5.513-12.29,12.29-12.29s12.29,5.513,12.29,12.29
			S372.918,433.073,366.141,433.073z M366.141,410.025c-5.933,0-10.759,4.826-10.759,10.759s4.826,10.759,10.759,10.759
			c5.933,0,10.759-4.826,10.759-10.759S372.074,410.025,366.141,410.025z"/>
	</g>
</g>
</svg>
