<?xml version="1.0" encoding="utf-8"?>
<!-- Generator: Adobe Illustrator 17.0.0, SVG Export Plug-In . SVG Version: 6.00 Build 0)  -->
<!DOCTYPE svg PUBLIC "-//W3C//DTD SVG 1.1//EN" "http://www.w3.org/Graphics/SVG/1.1/DTD/svg11.dtd">
<svg version="1.1" id="Layer_1" xmlns="http://www.w3.org/2000/svg" xmlns:xlink="http://www.w3.org/1999/xlink" x="0px" y="0px"
	 width="63px" height="55px" viewBox="9.058 -154.359 63 55" enable-background="new 9.058 -154.359 63 55" xml:space="preserve">
<g  fill="#ffffff">
	<path d="M18.136-112.59c-0.635,0-1.246,0.148-1.797,0.425c-3.339-4.334-5.171-9.696-5.171-15.188
		c0-13.728,11.168-24.896,24.896-24.896c1.749,0,3.496,0.182,5.191,0.542c0.57,0.121,1.13-0.243,1.251-0.813
		c0.121-0.57-0.243-1.13-0.813-1.251c-1.839-0.39-3.733-0.588-5.629-0.588c-7.214,0-13.995,2.809-19.096,7.91
		c-5.101,5.101-7.91,11.883-7.91,19.096c0,6.011,2.022,11.878,5.707,16.603c-0.414,0.641-0.638,1.388-0.638,2.17
		c0,1.071,0.417,2.077,1.174,2.835c0.757,0.757,1.764,1.174,2.835,1.174c1.071,0,2.077-0.417,2.835-1.174
		c0.757-0.757,1.174-1.764,1.174-2.835c0-1.071-0.417-2.077-1.174-2.835C20.213-112.173,19.206-112.59,18.136-112.59z
		 M19.478-107.238c-0.74,0.741-1.945,0.74-2.685,0c-0.359-0.359-0.556-0.835-0.556-1.343c0-0.507,0.197-0.984,0.556-1.343
		c0.37-0.37,0.856-0.555,1.343-0.555s0.973,0.185,1.343,0.555c0.359,0.359,0.556,0.835,0.556,1.343
		C20.034-108.074,19.837-107.597,19.478-107.238z"/>
	<path d="M26.795-104.24l-0.398,0.977l0.395-0.978c-0.54-0.218-1.155,0.042-1.373,0.583c-0.218,0.54,0.042,1.155,0.583,1.374
		l0.033,0.013c0.124,0.048,0.252,0.07,0.378,0.07c0.425,0,0.827-0.257,0.987-0.677C27.608-103.423,27.339-104.031,26.795-104.24z"/>
	<path d="M45.37-150.452l0.012,0.005c0.13,0.052,0.263,0.077,0.395,0.077c0.417,0,0.813-0.249,0.978-0.66
		c0.218-0.54-0.043-1.155-0.583-1.373l-0.019-0.007c-0.541-0.216-1.155,0.047-1.371,0.588
		C44.566-151.282,44.829-150.668,45.37-150.452z"/>
	<path d="M63.068-127.464c-0.025-5.972-2.043-11.797-5.704-16.492c0.414-0.641,0.638-1.388,0.638-2.17
		c0-1.071-0.417-2.077-1.174-2.835c-0.757-0.757-1.764-1.174-2.835-1.174c-1.071,0-2.077,0.417-2.835,1.174
		c-0.757,0.757-1.174,1.764-1.174,2.835c0,1.071,0.417,2.077,1.174,2.835c0.757,0.757,1.764,1.174,2.835,1.174
		c0.635,0,1.246-0.148,1.798-0.425c3.174,4.121,4.983,9.17,5.154,14.377c-1.123-0.277-2.295-0.427-3.502-0.427
		c-3.709,0-7.098,1.391-9.678,3.677c-0.083-0.862-0.257-1.505-0.344-1.777c-0.093-0.318-0.332-0.578-0.65-0.694
		c-0.064-0.023-0.584-0.207-1.392-0.326c3.45-3.671,2.311-7.961,2.042-8.799c-0.093-0.318-0.332-0.578-0.65-0.694
		c-0.148-0.054-2.731-0.965-5.673,0.059c0.166-0.682,0.263-1.431,0.263-2.253c0-5.261-3.984-7.573-4.783-7.983
		c-0.291-0.159-0.644-0.174-0.951-0.031c-0.198,0.092-4.845,2.316-4.845,8.014c0,0.824,0.098,1.575,0.264,2.257
		c-2.948-1.031-5.537-0.118-5.685-0.063c-0.318,0.116-0.557,0.376-0.65,0.694c-0.269,0.838-1.409,5.127,2.042,8.799
		c-0.808,0.118-1.328,0.302-1.392,0.326c-0.318,0.116-0.557,0.376-0.65,0.694c-0.275,0.855-1.457,5.307,2.263,9.027
		c2.153,2.153,4.542,2.666,6.332,2.666c0.663,0,1.242-0.071,1.698-0.154v6.903c0,0.583,0.472,1.055,1.055,1.055
		c0.583,0,1.055-0.472,1.055-1.055v-6.905c0.458,0.085,1.043,0.157,1.713,0.157c1.198,0,2.665-0.243,4.15-1.042
		c-0.096,0.675-0.149,1.364-0.149,2.065c0,3.549,1.273,6.807,3.385,9.341c-3.102,1.392-6.532,2.177-10.146,2.177
		c-1.477,0-2.956-0.13-4.398-0.387c-0.573-0.102-1.121,0.28-1.224,0.854c-0.102,0.574,0.28,1.121,0.853,1.224
		c1.563,0.278,3.167,0.42,4.768,0.42c4.127,0,8.107-0.931,11.718-2.673c2.578,2.276,5.959,3.661,9.66,3.661
		c8.059,0,14.616-6.557,14.616-14.616C72.058-120.041,68.342-125.255,63.068-127.464z M55.335-144.783
		c-0.359,0.359-0.835,0.556-1.343,0.556c-0.507,0-0.984-0.197-1.343-0.556c-0.74-0.74-0.74-1.945,0-2.685
		c0.359-0.359,0.835-0.556,1.343-0.556c0.507,0,0.984,0.197,1.343,0.556c0.359,0.359,0.556,0.835,0.556,1.343
		S55.694-145.141,55.335-144.783z M35.001-118.441c-0.023,0.479-0.091,0.881-0.155,1.171c-1.128,0.251-3.949,0.548-6.383-1.886
		c-2.398-2.397-2.146-5.172-1.881-6.383c0.709-0.154,2.093-0.326,3.624,0.171c0.101,0.038,0.201,0.073,0.301,0.107
		c0.811,0.308,1.653,0.81,2.452,1.608c1.521,1.521,1.975,3.193,2.041,4.508V-118.441z M35.001-128.26
		c-0.023,0.479-0.091,0.881-0.155,1.171c-0.699,0.155-2.047,0.328-3.551-0.142c-0.152-0.059-0.304-0.112-0.455-0.161
		c-0.787-0.311-1.601-0.808-2.377-1.584c-2.397-2.397-2.146-5.172-1.881-6.382c1.127-0.245,3.956-0.536,6.377,1.886
		c0.015,0.015,0.029,0.031,0.044,0.046c0.093,0.104,0.185,0.203,0.278,0.298c1.263,1.425,1.658,2.947,1.719,4.164V-128.26z
		 M36.071-133.553c-0.331-0.212-0.807-0.562-1.291-1.067c-0.049-0.054-0.099-0.108-0.151-0.162c-0.881-0.979-1.74-2.481-1.74-4.617
		c0-3.439,2.201-5.223,3.174-5.844c1.043,0.667,3.185,2.452,3.185,5.844c0,2.016-0.756,3.462-1.578,4.44
		c-0.171,0.171-0.331,0.344-0.482,0.518C36.767-134.031,36.363-133.739,36.071-133.553z M37.118-128.602
		c-0.001-1.238,0.319-2.877,1.631-4.417c0.155-0.154,0.312-0.321,0.466-0.499c2.421-2.381,5.209-2.09,6.33-1.842
		c0.266,1.209,0.518,3.986-1.88,6.384c-0.774,0.774-1.587,1.271-2.373,1.582c-0.153,0.049-0.307,0.103-0.462,0.163
		c-1.504,0.469-2.852,0.296-3.548,0.141c-0.078-0.352-0.161-0.868-0.164-1.486C37.118-128.584,37.118-128.593,37.118-128.602z
		 M43.664-119.157c-2.435,2.435-5.256,2.136-6.381,1.887c-0.245-1.122-0.542-3.957,1.884-6.384c0.776-0.776,1.592-1.274,2.379-1.585
		c0.15-0.048,0.301-0.101,0.453-0.16c1.501-0.468,2.846-0.298,3.545-0.143c0.147,0.67,0.288,1.82-0.02,3.12
		c-0.669,0.941-1.229,1.963-1.662,3.05C43.796-119.3,43.735-119.227,43.664-119.157z M57.442-101.335
		c-6.97,0-12.64-5.67-12.64-12.64c0-6.97,5.67-12.64,12.64-12.64s12.64,5.67,12.64,12.64
		C70.082-107.006,64.411-101.335,57.442-101.335z"/>
	<path d="M57.982-121.811h-4.383v8.005h-2.075v1.376h2.075v1.779h-2.075v1.334h2.075v3.177h1.567v-3.177h5.443v-1.334h-5.443v-1.779
		h2.816c3.96,0,5.379-2.35,5.379-4.68C63.361-118.888,62.577-121.811,57.982-121.811z M58.003-113.806h-2.838v-6.586h2.838
		c2.796,0,3.791,1.631,3.791,3.304C61.793-115.458,60.798-113.806,58.003-113.806z"/>
</g>
</svg>
