<?xml version="1.0" encoding="utf-8"?>
<!-- Generator: Adobe Illustrator 17.0.0, SVG Export Plug-In . SVG Version: 6.00 Build 0)  -->
<!DOCTYPE svg PUBLIC "-//W3C//DTD SVG 1.1//EN" "http://www.w3.org/Graphics/SVG/1.1/DTD/svg11.dtd">
<svg version="1.1" id="Layer_1" xmlns="http://www.w3.org/2000/svg" xmlns:xlink="http://www.w3.org/1999/xlink" x="0px" y="0px"
	 width="57.246px" height="55px" viewBox="95.96 16.009 57.246 55" enable-background="new 95.96 16.009 57.246 55"
	 xml:space="preserve">
<path  fill="#ffffff" d="M152.295,47.26c-1.003-1.49-2.672-2.379-4.465-2.379h-22.106v-5.594h4.527c9.081,0,16.469-7.388,16.469-16.469V17.15
	c0-0.63-0.511-1.141-1.141-1.141h-5.668c-6.957,0-12.919,4.335-15.329,10.446c-2.41-6.111-8.373-10.446-15.329-10.446h-5.668
	c-0.63,0-1.141,0.511-1.141,1.141v5.668c0,9.081,7.388,16.469,16.469,16.469h4.527v5.594h-22.106c-1.793,0-3.462,0.889-4.465,2.379
	c-0.991,1.472-1.187,3.328-0.523,4.964c2.312,5.699,7.661,9.657,13.746,10.231c1.345,2.458,3.295,4.539,5.672,6.044
	c2.314,1.465,4.947,2.323,7.676,2.51h2.281c2.025-0.139,3.996-0.649,5.824-1.5c0.004,0.007,1.764-0.956,1.801-0.98
	c0.017-0.01,0.034-0.019,0.05-0.03c2.347-1.486,4.275-3.534,5.618-5.952c2.624-0.265,5.106-1.161,7.263-2.554
	c2.886-1.813,5.211-4.503,6.537-7.769C153.482,50.588,153.287,48.732,152.295,47.26z M125.724,32.479
	c0-7.824,6.365-14.189,14.189-14.189h4.527v4.527c0,7.824-6.365,14.188-14.188,14.188h-2.914l12.431-12.431
	c0.445-0.445,0.445-1.168,0-1.613c-0.445-0.445-1.168-0.445-1.613,0l-12.431,12.431V32.479z M109.399,24.575l12.431,12.431h-2.914
	c-7.823,0-14.188-6.365-14.188-14.189v-4.527h4.527c7.824,0,14.189,6.365,14.189,14.189v2.914l-12.431-12.431
	c-0.445-0.445-1.167-0.445-1.613,0C108.953,23.407,108.953,24.13,109.399,24.575z M150.704,51.366
	c-1.484,3.656-4.449,6.52-8.015,7.929c-1.015,0.415-2.082,0.716-3.183,0.886c-0.118,0.014-0.235,0.029-0.353,0.041
	c-0.004,0.003-0.008,0.006-0.011,0.008c-0.334,0.043-0.67,0.081-1.009,0.099c-0.411,0.022-0.778,0.263-0.96,0.632
	c-1.072,2.159-2.63,3.951-4.503,5.281c-0.168,0.116-0.339,0.227-0.512,0.336c-0.114,0.074-0.226,0.15-0.342,0.22
	c-2.142,1.266-4.622,1.968-7.232,1.968c-5.442,0-10.328-3.031-12.75-7.91c-0.183-0.368-0.55-0.61-0.96-0.632
	c-5.475-0.295-10.347-3.772-12.411-8.86c-0.384-0.946-0.274-1.978,0.301-2.833c0.587-0.872,1.525-1.372,2.574-1.372h46.493
	c1.048,0,1.986,0.5,2.573,1.372C150.979,49.388,151.088,50.421,150.704,51.366z"/>
</svg>
