<?xml version="1.0" encoding="utf-8"?>
<!-- Generator: Adobe Illustrator 17.0.0, SVG Export Plug-In . SVG Version: 6.00 Build 0)  -->
<!DOCTYPE svg PUBLIC "-//W3C//DTD SVG 1.1//EN" "http://www.w3.org/Graphics/SVG/1.1/DTD/svg11.dtd">
<svg version="1.1" id="Layer_1" xmlns="http://www.w3.org/2000/svg" xmlns:xlink="http://www.w3.org/1999/xlink" x="0px" y="0px"
	 width="100.843px" height="55px" viewBox="72.008 10.836 100.843 55" enable-background="new 72.008 10.836 100.843 55"
	 xml:space="preserve">
<path  fill="#ffffff" d="M86.102,43.742c-4.411,0-8,3.589-8,8c0,4.411,3.589,8,8,8c4.411,0,8-3.589,8-8C94.102,47.331,90.513,43.742,86.102,43.742z
	 M86.102,57.853c-3.369,0-6.11-2.741-6.11-6.11c0-3.369,2.741-6.11,6.11-6.11s6.11,2.741,6.11,6.11
	C92.212,55.112,89.471,57.853,86.102,57.853z"/>
<path  fill="#ffffff" d="M122.43,43.742c-4.411,0-8,3.589-8,8c0,4.411,3.589,8,8,8c4.411,0,8-3.589,8-8C130.43,47.331,126.841,43.742,122.43,43.742z
	 M122.43,57.853c-3.369,0-6.11-2.741-6.11-6.11c0-3.369,2.741-6.11,6.11-6.11c3.369,0,6.11,2.741,6.11,6.11
	C128.54,55.112,125.799,57.853,122.43,57.853z"/>
<path  fill="#ffffff" d="M158.758,43.742c-4.411,0-8,3.589-8,8c0,4.411,3.589,8,8,8c4.411,0,8-3.589,8-8
	C166.758,47.331,163.169,43.742,158.758,43.742z M158.758,57.853c-3.369,0-6.11-2.741-6.11-6.11c0-3.369,2.741-6.11,6.11-6.11
	c3.369,0,6.11,2.741,6.11,6.11C164.868,55.112,162.127,57.853,158.758,57.853z"/>
<path  fill="#ffffff" d="M166.04,39.699c0.026,0.004,0.04,0.006,0.04,0.006l-1.06-2.967l-1.581-5.871l-4.884-18.142h0.783
	c0.522,0,0.945-0.423,0.945-0.945c0-0.522-0.423-0.945-0.945-0.945h-19.15c-2.188,0-3.969,1.78-3.969,3.969v16.189l0,1.89v7.776
	h-5.113c-2.395-1.879-5.403-3.01-8.676-3.01c-3.273,0-6.281,1.131-8.676,3.01H94.778c-2.395-1.879-5.403-3.01-8.676-3.01
	c-7.771,0-14.093,6.322-14.093,14.093s6.322,14.093,14.093,14.093c7.121,0,13.01-5.314,13.948-12.181h8.432
	c0.938,6.867,6.827,12.181,13.948,12.181c7.121,0,13.01-5.314,13.948-12.181h8.432c0.938,6.867,6.827,12.181,13.948,12.181
	c7.771,0,14.093-6.322,14.093-14.093C172.851,46.638,170.114,42.172,166.04,39.699z M143.148,12.725h13.449l5.732,21.292h-12.62
	c-0.536,0-1.061-0.141-1.523-0.403V15.812c0-0.522-0.423-0.945-0.945-0.945c-0.522,0-0.945,0.423-0.945,0.945v16.293l-1.676-1.397
	c-0.936-0.78-1.473-1.927-1.473-3.146V12.725z M138.109,14.804L138.109,14.804c0-1.146,0.933-2.079,2.079-2.079h1.071v14.837
	c0,1.781,0.785,3.457,2.153,4.597l3.113,2.594c0.893,0.744,2.024,1.153,3.186,1.153h13.128l0.688,2.591
	c-1.492-0.539-3.093-0.849-4.769-0.849c-3.273,0-6.281,1.131-8.676,3.01h-11.973V14.804z M86.102,63.951
	c-6.732,0-12.209-5.477-12.209-12.209s5.477-12.209,12.209-12.209S98.31,45.01,98.31,51.742S92.834,63.951,86.102,63.951z
	 M100.194,51.765c0-0.008,0.001-0.015,0.001-0.022c0-3.513-1.301-6.722-3.435-9.193h15.011c-2.134,2.471-3.435,5.68-3.435,9.193
	c0,0.008,0.001,0.015,0.001,0.022H100.194z M122.43,63.951c-6.732,0-12.209-5.477-12.209-12.209c0-3.667,1.633-6.953,4.201-9.193
	h0.008v-0.007c2.145-1.868,4.939-3.008,8-3.008c6.732,0,12.209,5.477,12.209,12.209S129.162,63.951,122.43,63.951z M136.522,51.765
	c0-0.008,0.001-0.015,0.001-0.022c0-3.513-1.301-6.722-3.435-9.193h15.011c-2.134,2.471-3.435,5.68-3.435,9.193
	c0,0.008,0.001,0.015,0.001,0.022H136.522z M158.758,63.951c-6.732,0-12.209-5.477-12.209-12.209s5.477-12.209,12.209-12.209
	c6.732,0,12.209,5.477,12.209,12.209S165.49,63.951,158.758,63.951z"/>
</svg>
