<?xml version="1.0" encoding="utf-8"?>
<!-- Generator: Adobe Illustrator 17.0.0, SVG Export Plug-In . SVG Version: 6.00 Build 0)  -->
<!DOCTYPE svg PUBLIC "-//W3C//DTD SVG 1.1//EN" "http://www.w3.org/Graphics/SVG/1.1/DTD/svg11.dtd">
<svg version="1.1" id="Capa_1" xmlns="http://www.w3.org/2000/svg" xmlns:xlink="http://www.w3.org/1999/xlink" x="0px" y="0px"
	 width="75.267px" height="55px" viewBox="44.634 -131.812 75.267 55" enable-background="new 44.634 -131.812 75.267 55"
	 xml:space="preserve">
<g fill="#ffffff">
	<path d="M98.085-87.299c1.579,1.168,3.322,1.761,5.182,1.761c5.984,0,11.741-6.015,13.249-7.716
		c-2.737-0.849-5.294-1.279-7.609-1.279c-1.219,0-2.38,0.119-3.453,0.352l-0.615,0.134v-0.732l0.11-0.089
		c0.912-1.301,1.718-2.677,2.395-4.091l0.176-0.368l0.439,0.128c0.696,0.203,1.393,0.307,2.07,0.307c5.52,0,8.989-6.765,9.872-8.712
		c-0.472-0.024-0.937-0.035-1.39-0.035c-3.29,0-5.998,0.626-8.049,1.862l-0.955,0.575l0.184-0.989
		c0.331-1.782,0.509-3.629,0.529-5.49l0.004-0.358l0.412-0.056c6.053-0.828,5.578-8.52,5.325-10.661
		c-2.499,0.965-4.396,2.168-5.642,3.58l-0.677,0.768l-0.201-0.947c-0.434-2.042-0.92-3.498-1.059-3.895l-0.041-0.118l0.038-0.118
		c1.458-4.472-5.808-7.523-7.981-8.324c-0.622,6.566,3.317,8.775,5.768,9.509l0.24,0.072l0.071,0.209
		c0.243,0.713,1.063,3.314,1.396,6.865l0.118,1.26l-0.979-0.944c-2.281-2.199-5.518-3.772-6.821-4.352
		c-1.778,9.036,4.225,11.767,6.931,12.526l0.405,0.114l-0.072,0.36c-0.075,0.377-0.15,0.725-0.23,1.063
		c-0.496,2.09-1.239,4.117-2.207,6.024l-0.608,1.197l-0.327-1.276c-0.805-3.143-3.103-6.162-4.014-7.271
		c-6.621,7.531-2.759,12.538-0.757,14.363l0.311,0.284l-0.303,0.29c-1.701,1.626-3.677,3.14-5.873,4.499l-1.054,0.652l0.283-1.089
		c0.895-3.439-0.256-7.587-0.725-9.036c-8.59,4.837-7.792,10.18-6.523,12.968l0.171,0.376l-0.428,0.165
		c-0.842,0.325-1.735,0.643-2.729,0.973l-0.178,0.059l-0.178-0.059c-1.108-0.366-2.203-0.762-3.254-1.177l-0.382-0.15l0.112-0.348
		c0.914-2.834,1.073-8.142-7.842-12.258c-0.277,1.276-0.857,4.597-0.207,7.633l0.236,1.104L69.726-87.9
		c-1.643-1.11-3.161-2.327-4.513-3.619l-0.304-0.29l0.311-0.284c2.002-1.825,5.863-6.831-0.757-14.363
		c-0.911,1.109-3.208,4.128-4.014,7.269l-0.327,1.274l-0.608-1.195c-0.956-1.879-1.693-3.881-2.19-5.95
		c-0.082-0.342-0.163-0.713-0.246-1.135l-0.071-0.36l0.405-0.113c2.707-0.759,8.71-3.489,6.933-12.526
		c-1.304,0.581-4.545,2.156-6.823,4.352l-0.979,0.944l0.119-1.26c0.336-3.565,1.155-6.156,1.399-6.865l0.072-0.209l0.239-0.072
		c2.45-0.735,6.388-2.944,5.766-9.51c-2.174,0.802-9.448,3.855-7.979,8.332l0.039,0.118l-0.041,0.118
		c-0.18,0.518-0.643,1.935-1.059,3.89l-0.201,0.947l-0.678-0.767c-1.249-1.414-3.146-2.617-5.645-3.582
		c-0.253,2.141-0.729,9.834,5.325,10.661l0.412,0.056l0.004,0.358c0.021,1.862,0.199,3.71,0.529,5.49l0.184,0.989l-0.955-0.575
		c-2.05-1.236-4.758-1.862-8.048-1.862c-0.453,0-0.918,0.012-1.39,0.035c0.885,1.947,4.357,8.712,9.872,8.712
		c0.677,0,1.374-0.103,2.07-0.307l0.439-0.128l0.176,0.368c0.677,1.414,1.483,2.791,2.396,4.092l0.105,0.086l0.005,0.189v0.545
		l-0.615-0.134c-1.073-0.234-2.235-0.352-3.453-0.352c-2.315,0-4.872,0.43-7.609,1.279c1.51,1.702,7.27,7.716,13.249,7.716
		c1.858,0,3.601-0.593,5.182-1.761l0.321-0.237l0.322,0.237c3.064,2.253,6.712,4.22,10.841,5.845l1.186,0.467l-1.248,0.324
		c-3.056,0.794-6.383,1.461-9.895,1.984l0.365,1.867c4.998-0.742,9.623-1.772,13.756-3.062l0.169-0.053l0.169,0.053
		c4.133,1.291,8.759,2.32,13.756,3.062l0.365-1.867c-3.513-0.523-6.839-1.19-9.895-1.984l-1.249-0.324l1.186-0.467
		c4.129-1.625,7.777-3.592,10.841-5.845l0.322-0.237L98.085-87.299z M110.74-114.687c0.003-0.713,0.157-1.397,0.457-2.033
		c0.358-0.759,0.937-1.475,1.721-2.127l1.005-0.837l-0.171,1.193c-0.231,1.606-0.751,2.855-1.504,3.61
		c-0.152,0.152-0.396,0.374-0.762,0.56l-0.748,0.38L110.74-114.687z M109.113-101.403c0.231-0.475,0.519-0.92,0.853-1.324
		c1.186-1.424,3.003-2.357,5.399-2.772l1.101-0.191l-0.581,0.826c-0.11,0.156-0.222,0.308-0.336,0.461
		c-0.874,1.149-1.78,2.042-2.696,2.658c-0.961,0.646-1.885,0.96-2.824,0.96c-0.174,0-0.353-0.012-0.534-0.035l-0.628-0.08
		L109.113-101.403z M105.585-124.625c-0.553-0.297-1.041-0.667-1.448-1.099c-0.468-0.498-0.838-1.091-1.102-1.762l-0.525-1.337
		l1.296,0.868c1.275,0.853,2.112,1.733,2.421,2.545c0.044,0.114,0.079,0.229,0.105,0.349l0.206,0.949L105.585-124.625z
		 M107.108-109.245l-0.167,0.509l-0.542-0.251c-1.139-0.526-2.069-1.235-2.765-2.107c-0.869-1.087-1.381-2.445-1.524-4.034
		l-0.084-0.939l0.874,0.568c2.338,1.52,3.845,3.135,4.243,4.549C107.247-110.583,107.358-110.008,107.108-109.245z M108.906-92.638
		c0.907,0,1.867,0.076,2.855,0.225l0.919,0.139l-0.651,0.574c-0.274,0.242-0.564,0.484-0.862,0.722
		c-1.345,1.079-2.67,1.93-3.939,2.529c-1.433,0.675-2.766,1.017-3.962,1.017c-1.028,0-2.023-0.267-2.958-0.793l-0.421-0.236
		l0.283-0.357c0.348-0.438,0.735-0.847,1.151-1.215C103.271-91.761,105.823-92.638,108.906-92.638z M98.615-97.488
		c-0.211-1.455,0.118-3.024,0.978-4.665l0.419-0.798l0.472,0.781c1.431,2.498,1.971,4.722,1.527,6.27
		c-0.122,0.427-0.373,1.071-1.143,1.723l-0.413,0.349l-0.336-0.406C99.287-95.237,98.782-96.332,98.615-97.488z M57.39-110.943
		c0.396-1.416,1.904-3.034,4.245-4.556l0.874-0.568l-0.084,0.938c-0.142,1.59-0.655,2.947-1.524,4.034
		c-0.696,0.871-1.626,1.58-2.765,2.107l-0.542,0.25l-0.167-0.508C57.179-110.001,57.287-110.576,57.39-110.943z M58.204-125.064
		c0.025-0.113,0.058-0.224,0.101-0.34c0.311-0.818,1.148-1.699,2.422-2.552l1.29-0.864l-0.518,1.332
		c-0.261,0.671-0.631,1.264-1.099,1.762c-0.407,0.432-0.894,0.802-1.448,1.1l-0.958,0.514L58.204-125.064z M53.049-114.321
		c-0.283-0.144-0.523-0.321-0.758-0.556c-0.753-0.75-1.275-2-1.508-3.613l-0.173-1.195l1.007,0.838
		c0.784,0.653,1.363,1.368,1.721,2.127c0.301,0.636,0.454,1.32,0.457,2.033l0.003,0.747L53.049-114.321z M55.04-100.82
		c-0.181,0.023-0.361,0.035-0.534,0.035c-0.939,0-1.863-0.314-2.824-0.96c-0.916-0.616-1.822-1.509-2.694-2.655
		c-0.117-0.156-0.228-0.309-0.337-0.462l-0.592-0.829l1.111,0.193c2.396,0.415,4.212,1.348,5.399,2.772
		c0.328,0.395,0.615,0.84,0.853,1.322l0.249,0.504L55.04-100.82z M63.997-102.071c0.015-0.027,0.033-0.061,0.054-0.097l0.465-0.797
		l0.427,0.813c0.86,1.639,1.189,3.208,0.978,4.665c-0.166,1.155-0.672,2.25-1.503,3.254l-0.336,0.406l-0.413-0.349
		c-0.764-0.646-1.018-1.288-1.143-1.715C62.085-97.422,62.608-99.616,63.997-102.071z M64.227-88.224
		c-0.935,0.526-1.93,0.793-2.958,0.793c-2.251,0-4.955-1.203-7.818-3.479c-0.313-0.249-0.63-0.514-0.943-0.787l-0.658-0.575
		l0.925-0.14c0.997-0.151,1.957-0.227,2.855-0.227c3.082,0,5.634,0.877,7.585,2.607c0.422,0.375,0.809,0.784,1.15,1.215l0.283,0.357
		L64.227-88.224z M76.615-84.834l-0.109,0.493l-0.548-0.174c-0.749-0.238-1.378-0.625-1.868-1.151
		c-1.468-1.583-1.71-4.258-1.654-6.224l0.025-0.903l0.793,0.594c1.571,1.177,2.628,2.481,3.143,3.875
		C76.807-87.215,76.88-86.04,76.615-84.834z M89.638-85.97c-0.434,0.561-1.023,0.995-1.751,1.29l-0.528,0.214l-0.158-0.482
		c-0.381-1.164-0.436-2.319-0.162-3.433c0.362-1.465,1.295-2.875,2.773-4.192l0.728-0.648l0.118,0.894
		C90.918-90.364,90.952-87.667,89.638-85.97z"/>
	<g>
		<path d="M76.575-105.862h-2.648v-16.877c-0.638,0.608-1.474,1.217-2.509,1.825c-1.035,0.608-1.964,1.064-2.788,1.368v-2.56
			c1.481-0.697,2.776-1.54,3.885-2.531c1.108-0.991,1.893-1.952,2.354-2.884h1.707V-105.862z"/>
		<path d="M84.42-117.56c-1.099-0.402-1.913-0.976-2.443-1.722c-0.53-0.745-0.795-1.638-0.795-2.678
			c0-1.569,0.564-2.889,1.692-3.958c1.128-1.069,2.629-1.604,4.502-1.604c1.883,0,3.399,0.547,4.547,1.641
			c1.148,1.094,1.721,2.425,1.721,3.995c0,1.001-0.262,1.871-0.787,2.612s-1.322,1.312-2.391,1.714
			c1.324,0.432,2.332,1.128,3.024,2.089c0.691,0.961,1.037,2.109,1.037,3.443c0,1.844-0.652,3.394-1.957,4.65
			c-1.305,1.256-3.021,1.883-5.15,1.883c-2.129,0-3.846-0.63-5.15-1.891c-1.305-1.26-1.957-2.832-1.957-4.716
			c0-1.403,0.355-2.577,1.067-3.524C82.093-116.571,83.106-117.216,84.42-117.56z M83.037-112.086c0,0.756,0.179,1.486,0.537,2.192
			c0.358,0.706,0.89,1.253,1.596,1.641c0.706,0.388,1.466,0.581,2.281,0.581c1.265,0,2.31-0.407,3.134-1.221
			c0.824-0.814,1.236-1.849,1.236-3.105c0-1.275-0.424-2.33-1.273-3.164c-0.848-0.834-1.91-1.25-3.186-1.25
			c-1.246,0-2.278,0.412-3.097,1.236C83.447-114.352,83.037-113.322,83.037-112.086z M83.891-122.047
			c0,1.02,0.328,1.854,0.986,2.502c0.657,0.647,1.51,0.971,2.56,0.971c1.02,0,1.856-0.321,2.509-0.964
			c0.652-0.642,0.979-1.429,0.979-2.362c0-0.971-0.336-1.788-1.008-2.45c-0.672-0.662-1.508-0.993-2.509-0.993
			c-1.01,0-1.849,0.324-2.516,0.971C84.224-123.725,83.891-122.95,83.891-122.047z"/>
	</g>
</g>
</svg>
