<?xml version="1.0" encoding="utf-8"?>
<!-- Generator: Adobe Illustrator 17.0.0, SVG Export Plug-In . SVG Version: 6.00 Build 0)  -->
<!DOCTYPE svg PUBLIC "-//W3C//DTD SVG 1.1//EN" "http://www.w3.org/Graphics/SVG/1.1/DTD/svg11.dtd" [
	<!ENTITY ns_extend "http://ns.adobe.com/Extensibility/1.0/">
	<!ENTITY ns_ai "http://ns.adobe.com/AdobeIllustrator/10.0/">
	<!ENTITY ns_graphs "http://ns.adobe.com/Graphs/1.0/">
	<!ENTITY ns_vars "http://ns.adobe.com/Variables/1.0/">
	<!ENTITY ns_imrep "http://ns.adobe.com/ImageReplacement/1.0/">
	<!ENTITY ns_sfw "http://ns.adobe.com/SaveForWeb/1.0/">
	<!ENTITY ns_custom "http://ns.adobe.com/GenericCustomNamespace/1.0/">
	<!ENTITY ns_adobe_xpath "http://ns.adobe.com/XPath/1.0/">
]>
<svg version="1.1" id="Objects" xmlns:x="&ns_extend;" xmlns:i="&ns_ai;" xmlns:graph="&ns_graphs;"
	 xmlns="http://www.w3.org/2000/svg" xmlns:xlink="http://www.w3.org/1999/xlink" x="0px" y="0px" width="259.808px" height="300px"
	 viewBox="0 0 259.808 300" enable-background="new 0 0 259.808 300" xml:space="preserve">
<metadata>
	<sfw  xmlns="&ns_sfw;">
		<slices></slices>
		<sliceSourceBounds  width="259.967" height="300.962" x="362.198" y="-512.42" bottomLeftOrigin="true"></sliceSourceBounds>
	</sfw>
</metadata>
<g>
	<g>
		<defs>
			<polygon id="SVGID_1_" points="1.812,76.047 129.904,2.093 257.995,76.047 257.995,223.954 129.904,297.907 1.812,223.954 			"/>
		</defs>
		<clipPath id="SVGID_2_">
			<use xlink:href="#SVGID_1_"  overflow="visible"/>
		</clipPath>
		<g transform="matrix(1 0 0 1 2.439204e-010 -8.737658e-009)" clip-path="url(#SVGID_2_)">
			
				<image overflow="visible" width="260" height="301" xlink:href="../../../Untitled-3.png"  transform="matrix(0.9999 0 0 0.9999 -0.0799 -0.4812)">
			</image>
		</g>
	</g>
	<g>
		<path fill="#FFFFFF" d="M129.904,300L0,225V75L129.904,0l129.904,75v150L129.904,300z M3.625,222.907l126.278,72.907
			l126.279-72.907V77.093L129.904,4.186L3.625,77.093V222.907z"/>
	</g>
</g>
</svg>
