<?xml version="1.0" encoding="utf-8"?>
<!-- Generator: Adobe Illustrator 17.0.0, SVG Export Plug-In . SVG Version: 6.00 Build 0)  -->
<!DOCTYPE svg PUBLIC "-//W3C//DTD SVG 1.1//EN" "http://www.w3.org/Graphics/SVG/1.1/DTD/svg11.dtd">
<svg version="1.1" id="Layer_1" xmlns="http://www.w3.org/2000/svg" xmlns:xlink="http://www.w3.org/1999/xlink" x="0px" y="0px"
	 width="28.565px" height="20px" viewBox="-341.533 -10 28.565 20" enable-background="new -341.533 -10 28.565 20"
	 xml:space="preserve">
<path d="M-313.557-6.87c-0.329-1.224-1.294-2.188-2.518-2.518C-318.309-10-327.251-10-327.251-10s-8.941,0-11.176,0.588
	c-1.2,0.329-2.188,1.318-2.518,2.541c-0.588,2.235-0.588,6.87-0.588,6.87s0,4.659,0.588,6.87c0.329,1.224,1.294,2.188,2.518,2.518
	C-336.168,10-327.25,10-327.25,10s8.941,0,11.176-0.588c1.224-0.329,2.188-1.294,2.518-2.518c0.588-2.235,0.588-6.87,0.588-6.87
	S-312.945-4.635-313.557-6.87z M-330.098,4.282v-8.565L-322.662,0L-330.098,4.282z"/>
</svg>
